<svg id="Layer_1" data-name="Layer 1" xmlns="http://www.w3.org/2000/svg" viewBox="0 0 235.88 239.54"><title>in</title><circle cx="32.36" cy="32.36" r="32.36" style="fill:none"/><rect x="6.85" y="78.9" width="51.01" height="159.64" rx="12" style="fill:none"/><path d="M697.92,355.45a12,12,0,0,0-12-12h-27a12,12,0,0,0-12,12V491.09a12,12,0,0,0,12,12h27a12,12,0,0,0,12-12V414.56s0-29.3,24.81-30.56,29.12,21.39,28.58,28.4l.05,31.88v47.81a12,12,0,0,0,12,12h27.76a12,12,0,0,0,12-12V401.62s.51-60.95-54.5-62c0,0-36.14-2.16-51.24,23.19Z" transform="translate(-567.25 -264.55)" style="fill:none"/></svg>