<svg xmlns="http://www.w3.org/2000/svg" viewBox="0 0 120.78 120.64"><title>git</title><g id="Layer_1" data-name="Layer 1"><path d="M683,325.36a60.39,60.39,0,0,0-19.09,117.69c3,.56,4.13-1.31,4.13-2.9,0-1.44-.06-6.2-.09-11.25-16.8,3.66-20.34-7.12-20.34-7.12-2.75-7-6.71-8.84-6.71-8.84-5.48-3.75.42-3.67.42-3.67,6.06.43,9.25,6.23,9.25,6.23,5.39,9.23,14.13,6.56,17.58,5,.54-3.91,2.1-6.57,3.83-8.08-13.41-1.53-27.51-6.71-27.51-29.84a23.37,23.37,0,0,1,6.22-16.21c-.63-1.52-2.69-7.67.58-16,0,0,5.08-1.63,16.61,6.19a57.09,57.09,0,0,1,30.25,0c11.52-7.82,16.59-6.19,16.59-6.19,3.28,8.31,1.22,14.46.59,16a23.33,23.33,0,0,1,6.22,16.21c0,23.19-14.13,28.3-27.58,29.79,2.17,1.88,4.1,5.55,4.1,11.18,0,8.08-.07,14.59-.07,16.58,0,1.6,1.08,3.49,4.14,2.89A60.39,60.39,0,0,0,683,325.36Z" transform="translate(-622.61 -325.36)" style="fill:none;fill-rule:evenodd"/><path d="M645.48,412.07c-.13.3-.6.39-1,.18s-.68-.61-.54-.91.6-.39,1-.19.69.62.53.92Zm-.74-.55" transform="translate(-622.61 -325.36)" style="fill:none"/><path d="M647.93,414.79c-.29.27-.85.15-1.23-.27s-.47-1-.18-1.26.84-.14,1.24.28.47,1,.17,1.25Zm-.58-.61" transform="translate(-622.61 -325.36)" style="fill:none"/><path d="M650.31,418.27c-.37.26-1,0-1.35-.52s-.37-1.18,0-1.44,1,0,1.35.51.37,1.19,0,1.45Zm0,0" transform="translate(-622.61 -325.36)" style="fill:none"/><path d="M653.57,421.63c-.33.37-1,.27-1.55-.23s-.67-1.18-.34-1.54,1-.26,1.56.23.69,1.18.33,1.54Zm0,0" transform="translate(-622.61 -325.36)" style="fill:none"/><path d="M658.07,423.58c-.14.48-.82.69-1.51.49s-1.13-.76-1-1.24.83-.7,1.52-.48,1.12.75,1,1.23Zm0,0" transform="translate(-622.61 -325.36)" style="fill:none"/><path d="M663,423.94c0,.5-.57.92-1.29.92s-1.3-.38-1.31-.87.57-.91,1.29-.93,1.31.39,1.31.88Zm0,0" transform="translate(-622.61 -325.36)" style="fill:none"/><path d="M667.61,423.16c.09.49-.41,1-1.12,1.12s-1.35-.17-1.44-.65.42-1,1.12-1.13,1.35.17,1.44.66Zm0,0" transform="translate(-622.61 -325.36)" style="fill:none"/><path d="M702.15,443c-3.06.6-4.15-1.29-4.15-2.89,0-2,.07-8.5.07-16.58,0-5.63-1.93-9.3-4.1-11.18,13.45-1.49,27.58-6.6,27.58-29.79a23.28,23.28,0,0,0-6.22-16.21c.63-1.52,2.7-7.67-.59-16,0,0-5.06-1.63-16.59,6.19a57.05,57.05,0,0,0-30.24,0c-11.54-7.82-16.61-6.19-16.61-6.19-3.28,8.31-1.22,14.46-.59,16a23.37,23.37,0,0,0-6.22,16.21c0,23.13,14.1,28.31,27.51,29.84-1.72,1.51-3.29,4.17-3.83,8.08-3.45,1.54-12.19,4.21-17.57-5,0,0-3.2-5.8-9.26-6.23,0,0-5.89-.08-.41,3.67,0,0,4,1.86,6.7,8.84,0,0,3.55,10.78,20.35,7.12,0,5.05.08,9.81.08,11.25a2.86,2.86,0,0,1-2.93,3A60.43,60.43,0,0,0,683.52,446m-38-33.93a.77.77,0,0,1-1,.18c-.44-.2-.68-.61-.54-.91s.6-.39,1-.19S645.66,411.77,645.51,412.07Zm2.44,2.72c-.29.27-.85.15-1.23-.27s-.47-1-.18-1.26.85-.14,1.24.28S648.25,414.52,648,414.79Zm2.38,3.48c-.37.26-1,0-1.35-.52s-.37-1.18,0-1.44,1,0,1.35.51S650.71,418,650.33,418.27Zm3.27,3.36c-.34.37-1,.27-1.56-.23s-.67-1.18-.34-1.54,1-.26,1.56.23S654,421.27,653.6,421.63Zm4.5,1.95c-.15.48-.83.69-1.51.49s-1.13-.76-1-1.24.83-.7,1.52-.48S658.24,423.1,658.1,423.58Zm3.66,1.28c-.72,0-1.31-.38-1.32-.87s.57-.91,1.29-.93,1.31.39,1.31.88S662.47,424.86,661.76,424.86Zm4.75-.58c-.7.13-1.35-.17-1.44-.65s.42-1,1.12-1.13,1.36.17,1.45.66S667.22,424.15,666.51,424.28Z" transform="translate(-622.61 -325.36)"/></g></svg>