<svg width="46" height="46" viewBox="0 0 46 46" fill="none" xmlns="http://www.w3.org/2000/svg">
<path d="M10.4159 4.98894C10.4159 7.74428 8.40924 9.97788 5.11017 9.97788C2.00665 9.97357 0 7.74428 0 4.98894C0 2.1646 2.07043 0 5.24196 0C8.40924 0 10.3521 2.1646 10.4159 4.98894ZM0.259335 46V13.9104H10.0928V46H0.259335Z" fill="white"/>
<path d="M15.9767 24.147C15.9767 20.1455 15.8492 16.7994 15.7174 13.9104H24.2584L24.7133 18.3733H24.9089C26.2013 16.2734 29.3728 13.1903 34.6786 13.1903C41.1492 13.1903 46 17.5885 46 27.036V46H36.1665V28.2175C36.1665 24.0823 34.7423 21.2623 31.1839 21.2623C28.4673 21.2623 26.8518 23.1639 26.1375 25.0008C25.8782 25.6562 25.8144 26.5746 25.8144 27.4931V46H15.9767V24.147Z" fill="white"/>
</svg>
