<svg id="Layer_12" data-name="Layer 12" xmlns="http://www.w3.org/2000/svg" viewBox="0 0 337.22 601.81"><defs><style>.cls-1{fill:#fbfbfb;}.cls-2{fill:#419f3a;}.cls-3{fill:#49ad3d;}.cls-4{fill:#4fb140;}.cls-5{fill:#44a93d;}.cls-6{fill:#3f9639;}.cls-7{fill:#43a43b;}.cls-8{fill:#54b541;}.cls-9{fill:#57b643;}.cls-10{fill:#5cba43;}.cls-11{fill:#e5e5d3;}.cls-12{fill:#eff0e1;}.cls-13{fill:#dfdfcb;}.cls-14{fill:#e2e2cf;}.cls-15{fill:#f8f8ec;}.cls-16{fill:#ebecdc;}.cls-17{fill:#65b451;}.cls-18{fill:#77ba66;}.cls-19{fill:#e0f5dd;}.cls-20{fill:#8dc584;}.cls-21{fill:#7fbf79;}.cls-22{fill:#69b556;}.cls-23{fill:#b9dfb6;}.cls-24{fill:#d4f3cd;}.cls-25{fill:#97c791;}.cls-26{fill:#c7e5c0;}.cls-27{fill:#409a38;}.cls-28{fill:#dcdcc6;}.cls-29{fill:#d5d8c0;}.cls-30{fill:#6db267;}.cls-31{fill:#c5ebc0;}.cls-32{fill:#e8e9d7;}.cls-33{fill:#50974d;}.cls-34{fill:#cbebc8;}.cls-35{fill:#45a83c;}.cls-36{fill:#f3f4e6;}</style></defs><title>mongo</title><path class="cls-1" d="M987.17,226.12c0-2-.32-4,.5-5.93h3.78c-1.21.66-1.13,1.68-1.07,2.69L990,223a2.1,2.1,0,0,1-.93-.39c-1.52.1-.42,1.08-.75,1.57C988.21,224.92,988.51,225.87,987.17,226.12Z" transform="translate(-822.78 -220.19)"/><path class="cls-1" d="M993.61,220.19c-.13.52.32,1.19-.54,1.56-.86-.37-.4-1-.54-1.56Z" transform="translate(-822.78 -220.19)"/><path class="cls-2" d="M1151.32,477.21l.15,1.64c.5,3.58,1.81,7,1.61,10.75-.25,4.44,1.28,8.83,1.06,13.31a80.48,80.48,0,0,0,.42,12,11.69,11.69,0,0,0,0,4.17c-.37.82-.09,1.86-1.16,2.45-1.84.75-3.85.59-5.79.62-4.67.08-9.35,0-14,0-1.84,0-3.35.19-3.81,2-.37,1.48-1.77,2-3.5,1.84-6.1-.58-12.22-.14-18.33-.31-2.1,0-3.64.27-4.21,2.26-.43,1.51-2,1.79-3.66,1.63-6-.57-12-.13-18.06-.29-2.09-.06-3.65.25-4.21,2.25-.43,1.5-2,1.8-3.66,1.64-6-.58-12.05-.14-18.06-.3-2.08-.05-3.65.23-4.22,2.25-.41,1.49-2,1.8-3.65,1.64-6.19-.58-12.4-.14-18.6-.29-1.81,0-3.11.32-3.56,2s-2.17,2.08-4,2c-5.3-.23-10.6-.36-15.89-.6-3.92-.19-5.23.67-5.25,3.95,0,1.42,0,2.84,0,4.26,0,.87.05,1.81-1,2.49-1.27-.71-1-1.82-1-2.81,0-5.16-.16-10.32,0-15.47.14-4-.75-7.89-.61-11.85a2,2,0,0,0-.86-1.81,2.49,2.49,0,0,1-.52-.74,9,9,0,0,1-.34-3.34c0-5.38.07-10.77,0-16.15-.57-32.81-.38-65.63-.42-98.44,0-6.35,0-12.71,0-19.06,0-1-.47-2.75,1.29-2.73s1.24,1.74,1.24,2.77c0,4.78.13,9.57.1,14.35a4.19,4.19,0,0,0,1,3.39c.12.11.15.31.28.38,1.09.55-1,1.52.58,2.22,1.18.54,1.08,2,1.24,3.08a23.58,23.58,0,0,1,.09,3.36c0,3.22,0,6.43,0,9.65,0,.78-.29,1.64.58,2.4,1.19-.79.95-1.89,1-2.88,0-4.48,0-9,0-13.46,0-3.29.75-3.85,4.78-4s4.2-.22,4.4-3.57c.19-3,.91-3.6,4.94-3.61q24.69,0,49.38,0c.81,0,1.62,0,2.43,0,3.17-.07,3.59-.4,3.75-3,.24-3.78.73-4.19,5.31-4.21,7.55,0,15.11,0,22.67,0,2.6,0,5.2.12,7.71-.74,1.43-.49,3,.27,4.53-.08,1.17-.27,2.43,0,3.48-.88s1.51.19,2.09.69c2,3.32,4.44,6.53,5.22,10.3h0c1,.58.67,1.58,1.13,2.34-.09.12-.06.23.09.3,1.75,1.17,1.71,2.92,2.1,4.52h0c3,4.84,4.71,10.07,6.5,15.28h0a58.43,58.43,0,0,1,4.88,12.36,14.78,14.78,0,0,0,1.19,2.47,18.41,18.41,0,0,1,1.49,5.85l0,0c.9.95.85,2.12,1.08,3.22l.15.81c1.39,3.22,2.93,6.42,3.12,9.91v0c1.63,2.85,1.94,6,2.81,9s1,6.33,1.51,9.48h0c1.16,1.68.46,3.57.88,5.34C1151.24,475.89,1151,476.58,1151.32,477.21Z" transform="translate(-822.78 -220.19)"/><path class="cls-3" d="M967.68,741.59l-.93-.54a14.19,14.19,0,0,1-5-3.6h0a9.62,9.62,0,0,1-3.2-2.33,4.52,4.52,0,0,0-2.61-1.78c-1.31-.75-2.74-1.39-3.37-2.72l-.42-.36c-2.31-.58-3.14-2.59-5-3.56l-3.76-3.14a1,1,0,0,1,1.54-.32,33.59,33.59,0,0,0,6.32,3.32c.65.25.52.89.69,1.22.77-1.59-2.34-2.15-1.66-3.87a3.68,3.68,0,0,1,.6-.51c1.38-1.79.88-3.78.74-5.68a38.71,38.71,0,0,1-.41-5.37c.11-1.85-1-2.57-3.1-2.48a30.28,30.28,0,0,1-5.63-.47c-2.58-.36-3.48-1.12-3.64-3.23-.17-2.27-.31-4.55,3-5.58,1.18-.36,1.16-1.44,1.18-2.34,0-2.77-.66-5.5-.6-8.28,0-1.27-1.07-1.62-2.37-1.62a53,53,0,0,1-6.18-.47c-1.86-.23-3.41-.83-3.59-2.52-.21-2-1.07-4.47,1.69-5.67a3.5,3.5,0,0,0,2.44-3.81c0-2.4,0-4.79,0-7.19,0-1.56-.95-2.32-2.83-2.35-2.07,0-4.15,0-6.21-.05-2.77-.13-3.69-.85-3.84-3.17s-.44-4.59,3-5.59c1.07-.31,1.19-1.26,1.21-2.1.09-2.76.06-5.53,0-8.3,0-1.58-1-2.3-2.86-2.34s-4,0-5.94,0c-3.09-.11-4-.82-4.1-3.42-.12-2.21-.2-4.38,3-5.36,1.3-.4,1.22-1.57,1.22-2.54,0-2.7-.67-5.36-.59-8.06,0-1.09-.8-1.59-2.06-1.65-.54,0-1.08,0-1.62-.08-3.27-.2-4.24-1-4.33-3.81-.08-2.54,0-5.09,0-7.63,0-2.93-.41-3.24-3.82-3.35-4.27-.15-4.77-.54-4.79-4.12,0-1.58,0-3-2.44-3.4a2.13,2.13,0,0,1-1.74-2.09c-.2-2.5-.94-5.19,3-6.42,1.06-.33,1.08-1.32,1.11-2.15.11-2.84-.66-5.65-.6-8.5,0-1.28-1.15-1.57-2.42-1.58a53.06,53.06,0,0,1-6.18-.48c-1.85-.24-3.4-.85-3.55-2.54-.18-2-1.07-4.46,1.74-5.66a3.36,3.36,0,0,0,2.39-3.82,68.63,68.63,0,0,1-.58-7.16c.06-1.31-.83-1.9-2.34-1.89a48.71,48.71,0,0,1-6.72-.54c-2.08-.29-3.16-1.3-3.26-3-.14-2.37-.33-4.71,3.13-5.78,1-.32,1.08-1.32,1.11-2.15.1-2.84-.69-5.65-.61-8.5,0-1-.75-1.45-1.9-1.53l-1.35-.06c-4.13-.2-4.74-.73-4.75-4.25,0-4.56,0-9.13,0-13.69,0-3.79-.12-3.88-4.6-4.07-3.17-.13-4.08-.75-4-3.42.21-6.37-.68-12.7-.6-19.06a12.65,12.65,0,0,0-.14-2.46c-.59-3.4-.77-3.29-4.21-3.41-2.8-.1-3.56-.9-3.73-3.25,0-.37,0-.75,0-1.12-.12-2.74-.5-3-3.79-3.19-1.67-.07-3.77.23-4.4-1.48-.77-2.07-1-4.3.4-6.3.82-1.17,2.43-1.22,3.88-1.17,2.08.06,2.85-.71,2.86-2.42s-.68-2.54-2.94-2.6c-4-.1-4.62-.71-4.64-4.08,0-2.78-.72-5.51-.61-8.28.05-1.28-.78-1.95-2.32-1.93-2,0-4-.28-6,.77-2.43,1.28-2.13-.84-2.63-1.85-.24-2.53.72-4.88,1.51-7.26v0c.58-2.86.85-5.77,2.13-8.5l.11-.73A154.31,154.31,0,0,1,845.61,415c.75-1.94,1.16-4,1.85-6.05a3.89,3.89,0,0,1,1.26-1.94l.15-.75c.36-.8.38-1.69,1-2.39a.2.2,0,0,0,.05-.31c.6-.87,0-2.05,1.12-2.78h0a24.93,24.93,0,0,1,3.23-8.12h0a19.35,19.35,0,0,1,3.16-7.24l0,0a17.7,17.7,0,0,1,3.34-7.09h0c.58-1.56.93-3.19,2.2-4.5h0c.72-1.05.07-3,2.69-2.81a2.9,2.9,0,0,1,1.19,3.06,38.67,38.67,0,0,0,.05,4c0,1.73.26,3.1,2.82,3.36,1,.1,1.33.92,1.46,1.69a20.38,20.38,0,0,1,.12,2.92,2,2,0,0,0,1.93,2.31c1.91.28,2.33,1.43,2.36,2.82,0,1.79,0,3.59,0,5.38,0,1.31.27,2.38,2.15,2.64a2.26,2.26,0,0,1,2.13,2.49c.08,1.94,0,3.88,0,5.83A2.13,2.13,0,0,0,882,410a2.28,2.28,0,0,1,2.18,2.45c.09,2,0,4,.05,6.06a2,2,0,0,0,2,2.25,2.37,2.37,0,0,1,2.27,2.64c0,1.87,0,3.74,0,5.61a2.21,2.21,0,0,0,2.22,2.58c1.67.23,2,1.31,2.07,2.52.08,1.94,0,3.89,0,5.83a2.13,2.13,0,0,0,2.13,2.41,2.25,2.25,0,0,1,2.15,2.47c.08,1.94,0,3.88,0,5.83,0,1.22.31,2.22,2.05,2.45a2.28,2.28,0,0,1,2.23,2.42c.1,2.09.7,4.15.6,6.26a1.73,1.73,0,0,0,1.54,2.07c1.91.37,2.19,1.58,2.21,2.93,0,2.84,0,5.68,0,8.53,0,1.55.28,2.77,2.56,3.08a2.5,2.5,0,0,1,2.21,2.51,17,17,0,0,1-.25,5.37c-.28,1.42,0,2.52,2.06,2.81,1.69.23,2,1.33,2,2.53.08,1.87,0,3.74,0,5.61,0,1.31.31,2.35,2.18,2.61a2.79,2.79,0,0,1,2.6,2.76,18.65,18.65,0,0,1-.3,5.37c-.25,1.33.07,2.38,2,2.63a2.25,2.25,0,0,1,2.14,2.47c.1,2,0,4,.07,6.06,0,.92.14,1.89,1.53,2.09,2.94.41,3.35,2.17,3.29,4.18-.05,1.57,0,2.94,2.4,3.44,1.35.28,1.32,1.49,1.36,2.46.1,2,0,3.89.06,5.84a1.91,1.91,0,0,0,1.84,2.13,2.49,2.49,0,0,1,2.44,2.76q.06,4.28,0,8.53c0,1.6.13,3,2.58,3.29,1.42.18,1.64,1.26,1.7,2.27.12,1.94,0,3.89.06,5.83a2.28,2.28,0,0,0,2.25,2.58c2.26.37,2.53,1.92,2.57,3.48s-.25,3.44,2.61,4c1.28.27,1.15,1.58,1.18,2.54.07,2.77,0,5.54,0,8.3,0,1.62.18,2.94,2.6,3.29,1.69.25,2.08,1.52,2.2,2.77.16,1.72.06,3.44.07,5.16a2.35,2.35,0,0,0,1.8,2.48,3,3,0,0,1,2.22,3.68,26.93,26.93,0,0,0-.25,3.58c-.08,1.89,0,3.57,2.94,4,1.39.21,1.72,1.43,1.84,2.51a18.29,18.29,0,0,1-.27,5.37c-.24,1.33.07,2.38,2,2.65a2.27,2.27,0,0,1,2.14,2.48c.09,1.94,0,3.89.05,5.83a2.14,2.14,0,0,0,2.09,2.45,2.87,2.87,0,0,1,2.69,2.94,16.94,16.94,0,0,1-.27,4.92c-.3,1.49-.05,2.67,2.13,3,1.54.22,1.87,1.26,1.94,2.37.12,2,0,4,.07,6a2.07,2.07,0,0,0,2,2.27,2.91,2.91,0,0,1,2.75,2.91,18.5,18.5,0,0,1-.28,5.14c-.27,1.42.06,2.52,2.09,2.8a2.06,2.06,0,0,1,2,2.11c.1,1.65.52,3.27.61,4.91.16,3.22.16,3.22,3.72,4,1.24.75,1.08,1.79.7,2.8a13.43,13.43,0,0,0-.82,2.58c2.21-1.72,2.28-1.57,3.45.42,1.34,2.28.81,4.63,1,7,.16,5.25-1,10.4-1.73,15.59-.82,6.14-2,12.24-2.77,18.38-1.46,6.2-2.44,12.48-4.22,18.63-.74,2.54-1.4,5.09-2.39,7.56a5.59,5.59,0,0,1-2,2.85c-1.38.37-1.9-.73-2.83-1.14-2.35-1.24-4.24-3-6.81-4A4.12,4.12,0,0,1,967.68,741.59Z" transform="translate(-822.78 -220.19)"/><path class="cls-4" d="M988.21,672.84h-.27c-5.33-.06-4.57.56-4.57-3.79,0-1.95-.84-3.82-.59-5.78.15-1.23-1-1.25-2-1.2-1.81.09-2.42-.69-2.29-2.06a37.2,37.2,0,0,0,.57-6.23c-.1-1.54-.46-2.67-2.75-2.5-1.67.12-2.18-.68-2.15-1.94.05-2.32,0-4.64,0-7,.05-1.28-.31-2-2.07-1.88s-2.41-.69-2.27-2.06a38.18,38.18,0,0,0,.57-6.23c-.1-1.55-.49-2.66-2.76-2.49-1.69.13-2.17-.69-2.15-2,0-2.32,0-4.64,0-7,.05-1.29-.35-2-2.09-1.86s-2.4-.72-2.25-2.08a37.08,37.08,0,0,0,.56-6.22c-.09-1.56-.51-2.66-2.77-2.48-1.27.09-2.14-.35-2.1-1.52.08-2.16-.39-4.35.25-6.48.56-1.87-.22-3-2.45-3.17-1.59-.13-1.62-.86-1.61-1.82,0-2,0-4,0-6.06,0-1.55-.43-2.68-2.72-2.51-1.68.13-2.17-.67-2.16-1.94,0-3.52,0-7,0-10.55,0-1.27-.32-2-2.08-1.87-1.53.14-1.79-.64-1.73-1.68,0-.82,0-1.65,0-2.47.11-1.86-.23-3.3-3.16-3.07-1.44.11-1.72-.82-1.71-1.82,0-2.4-.05-4.79,0-7.18,0-1.21-.36-1.88-2-1.74-2,.17-2.43-.76-2.4-2.2.06-3.44,0-6.89,0-10.33,0-1.31-.38-2-2.1-1.85s-2.3-.74-2.26-2.09c.06-2.24,0-4.49,0-6.73,0-1.19-.12-2.12-2-2-1.44.14-1.92-.48-1.84-1.6.07-.9,0-1.8,0-2.69.1-1.81-.31-3.12-3.06-2.93-1.63.12-1.82-.9-1.81-2,0-2.32,0-4.64,0-7,0-1.12-.17-2-1.86-1.81-2.16.19-2.7-.85-2.47-2.35a27.68,27.68,0,0,0,.54-6.22c-.1-1.38-.57-2.36-2.54-2.21-1.77.14-2.39-.61-2.35-2,.07-2.32,0-4.64,0-7,0-1.14-.2-1.95-1.87-1.8-2.18.19-2.69-.87-2.45-2.36a27.76,27.76,0,0,0,.53-6.23c-.09-1.38-.58-2.34-2.55-2.19-1.78.13-2.36-.63-2.34-2,.06-3.44,0-6.89,0-10.33,0-1.33-.24-2.2-2.17-2-1.61.14-1.75-.78-1.63-1.75.32-2.55-.69-5-.54-7.57.08-1.28-.78-1.53-2-1.45-1.79.12-2.36-.65-2.32-2,.07-2.32,0-4.64,0-7,0-1.16-.27-1.92-1.91-1.78-1.94.17-2.51-.68-2.46-2.16.08-2.24,0-4.49,0-6.73,0-1.26-.28-2-2.06-1.89s-2.34-.67-2.3-2.05c.06-2.32,0-4.64,0-7,0-1.17-.3-1.9-1.93-1.76-1.95.17-2.48-.71-2.43-2.18.08-2.24,0-4.49,0-6.73.05-1.28-.31-2-2.07-1.88s-2.33-.7-2.29-2.06c.06-2.32,0-4.64,0-7,0-1.19-.34-1.88-2-1.75-2,.17-2.46-.73-2.41-2.19.07-2.24-.05-4.49,0-6.73.05-1.3-.36-2-2.09-1.86s-2.36-.73-2.27-2.08c.06-.82-.06-1.65,0-2.47.19-1.72-.1-3-2.78-2.65-.94.12-1.67-.26-1.53-1.13.35-2.14-.71-4.24-.1-6.41A2.6,2.6,0,0,0,864.9,371c-.86-1.49.48-2.44,1.27-3.52h0a157.21,157.21,0,0,1,8-15c3.68-6.22,7.72-12.29,12-18.25a4.28,4.28,0,0,1,1.66-1.72h0A7.59,7.59,0,0,1,891,328c2.59-2.43,4-5.48,6.35-8,.31-.35.68-.67,1-1,1.07-1.14,2.23-1.43,3.57-.27a2.17,2.17,0,0,0,3.06-.11,7.6,7.6,0,0,1,2.49-1.31c.67-.2,1.4-.51,2,.11a1.28,1.28,0,0,1,0,1.69,3.71,3.71,0,0,1-1.4,1.35c-2,1.05-2.44,2.59-2.33,4.44a2.64,2.64,0,0,0,2,2.83,3.18,3.18,0,0,1,2.29,3.06,27.46,27.46,0,0,1,.05,3.14c-.09,2.07-.18,4,2.78,5,1.12.37,1.38,1.51,1.47,2.51a23.21,23.21,0,0,1,.06,3.82c-.12,1.88,0,3.54,2.62,4.34a2.6,2.6,0,0,1,1.63,2.45,21.51,21.51,0,0,1,.08,3.59c-.08,2-.14,3.85,2.72,4.81,1.34.44,1.51,1.77,1.57,2.93.09,1.57.06,3.14,0,4.71a2.35,2.35,0,0,0,1.84,2.67,3.27,3.27,0,0,1,2.44,3.21,29.15,29.15,0,0,1,0,3.37c-.09,1.93,0,3.7,2.65,4.6,1.25.42,1.52,1.6,1.62,2.69a26.86,26.86,0,0,1,.06,3.59c-.1,1.92-.1,3.7,2.68,4.53,1.14.35,1.44,1.47,1.56,2.47a21.08,21.08,0,0,1,.08,3.37c-.06,2.05-.22,4,2.78,5,1.12.36,1.37,1.51,1.48,2.51a27.08,27.08,0,0,1,.07,3.37c0,2-.31,4,2.78,4.94,1.44.44,1.49,1.95,1.52,3.17.06,2.54,0,5.09,0,7.63a2.79,2.79,0,0,0,2,3.09c2.07.74,2.35,2.35,2.28,4s.26,2.75,2.3,3.35a2.86,2.86,0,0,1,2,2.75,21.07,21.07,0,0,1,.06,3.81c-.13,1.9.12,3.52,2.63,4.39a2.79,2.79,0,0,1,1.65,2.68,26.91,26.91,0,0,1,0,3.59c-.08,1.92-.12,3.71,2.67,4.55,1.15.34,1.45,1.45,1.58,2.46a23.57,23.57,0,0,1,.08,3.36c-.07,2.06-.2,4,2.77,5,1.12.37,1.38,1.51,1.48,2.51a24.37,24.37,0,0,1,.06,3.82c-.1,1.87,0,3.55,2.62,4.35a2.59,2.59,0,0,1,1.62,2.44,20.52,20.52,0,0,1,.09,3.59c-.08,2-.14,3.89,2.72,4.81,1.14.37,1.42,1.49,1.53,2.5a25.14,25.14,0,0,1,.08,3.36c0,2-.34,4.06,2.76,5,1.14.33,1.38,1.5,1.49,2.5a23.89,23.89,0,0,1,.06,3.59c-.1,1.95,0,3.69,2.67,4.6,1.24.43,1.51,1.62,1.6,2.7a28.7,28.7,0,0,1,.05,4c-.09,1.74.07,3.24,2.5,3.95a2.69,2.69,0,0,1,1.75,2.62,21.11,21.11,0,0,1,.07,3.81c-.12,1.9.12,3.5,2.62,4.41,1.44.53,1.63,1.89,1.69,3.12.08,1.72,0,3.44.06,5.16.05.87.23,1.73,1.63,1.64s1.42-1,1.3-1.82a76.38,76.38,0,0,1-.2-9.2,3.53,3.53,0,0,1,.38-2c.41-.66.88-.69,1.33,0A2.59,2.59,0,0,1,997,531a160,160,0,0,1,.26,18.58c-.11,2.21-1.09,4.38-.46,7.14.78-5.75.4-11,.67-16.32a1.13,1.13,0,0,1,.63-.58.88.88,0,0,1,.73.48c.36,3.48,0,7,.21,10.43.35,2.12,0,4.25.23,6.37.13,9.64-.26,19.27-.45,28.91-.16,7.84-.81,15.67-.68,23.51.12,7-1.37,14-1.11,21,0,.9,0,1.79,0,2.69-.16,5.51-.6,11-1.18,16.5a199.76,199.76,0,0,0-1,26.56,7.51,7.51,0,0,1-.34,3.32c-.91,1.12-1.28.28-1.53-.35a9.67,9.67,0,0,1-.23-2.89c-.06-.79.32-1.64-.36-2.37a18.27,18.27,0,0,0-2.17-1,1.48,1.48,0,0,1-.4-.51,2.29,2.29,0,0,1,.62-2.1,4.2,4.2,0,0,0,.73-1.18c.27-1-.45-1.7-.9-2.48a.67.67,0,0,0-.93-.14c-.81.55-.51,1.36-.57,2.07-.13,1.32.28,2.68-.41,4Z" transform="translate(-822.78 -220.19)"/><path class="cls-5" d="M950.39,724c1.19,1.53,2.82,3,1.7,5.25-1.1-3.55-5.71-3.57-8-5.9-.06-.06-.48.12-.73.18h0c-1.64-3.14-4.72-5.19-7.9-7.17a5.82,5.82,0,0,1-.6-.34,39.39,39.39,0,0,0-3.17-2.35,7.4,7.4,0,0,1-1.85-1.35h0c-.59-.5-1.3-.94-1.5-1.69.08-.95-.69-1.29-1.59-1.55a2.4,2.4,0,0,1-.56-.38,15.47,15.47,0,0,0-3.81-3.16,15.12,15.12,0,0,1-4.33-4.08l-.08.1.09-.1c-2.05-1-3.21-2.7-4.45-4.31l-1-1a9.29,9.29,0,0,1-3.28-3.56l0,0a19,19,0,0,1-5.31-5.46h0c-1.61-.85-2.35-2.27-3.32-3.54h0l-.48-.4a14.76,14.76,0,0,0-1.88-2,7.83,7.83,0,0,1-.83-1.26l0,0a7.44,7.44,0,0,1-2.25-2.54l-1-1A17.28,17.28,0,0,1,889.9,671h0a6.54,6.54,0,0,1-2.18-2.7h0a7.08,7.08,0,0,1-2.18-2.69h0a86.93,86.93,0,0,1-10.76-14.42h0c-3.19-4.21-6.4-8.41-8.67-13l0,0c-3.26-5-6.62-9.92-8.67-15.37.07-.15,0-.25-.15-.31a21.72,21.72,0,0,1-4.2-8.11h0c-1.55-1.23-1.54-3-2.14-4.52h0a14.68,14.68,0,0,1-2.16-4.52h0c-2.46-4.58-4.13-9.4-6-14.15-.74-1.85-1-3.76-1.56-5.61l0,0c-1.12-.86-.54-2.13-1.12-3.12h0c-2-3.55-2.55-7.39-3.28-11.2h0a13.94,13.94,0,0,1-1.7-5.5c-.22-2.7-1.32-5.3-1.52-8h0a1.63,1.63,0,0,1-.62-1.42c-.4-3.91-1.46-7.77-1.95-11.64-.44-3.44-1.44-6.87-1.33-10.38.16-4.91-.94-9.77-.93-14.71,0-6.56-.32-13.12.64-19.66.58-4,.28-8.06.57-12.09a37.47,37.47,0,0,1,1.4-8.17l0-.7c0-4.54,1-9,1.66-13.47.41-2.71.25-5.59,1.58-8.21h0c.51-2.18.44-4.43,1.29-6.57.14-.36.16-.71.74-.69,1,.41.31,1.4,1.13,2.18,2-3,5.24-1.38,8-1.69,1.55-.18,2.27.45,2.31,1.81.11,3.42.44,6.84.48,10.27,0,1.7.93,2.2,2.76,2.28,5.21.22,5.16.25,4.87,4.7-.07,1.13-.49,1.53-1.89,1.6-6.11.3-6.07.34-5.73,5.72.09,1.31.65,1.84,2.26,1.91,6.22.3,6.31.34,6.37,5.35,0,1.9,1.19,2.24,3.05,2.28,4.09.08,4.1.1,4.9,3.31a5.09,5.09,0,0,1,.19,1.33c-.24,6.95,1,13.87.52,20.81-.15,2.11.6,3.15,3.3,2.84.7-.08,1.44,0,2.16,0,2.28-.12,3.26.73,3.24,2.65-.07,5.46,0,10.92,0,16.38,0,2.76.22,3,3.49,3,.63,0,1.26,0,1.89,0,1.92-.15,2.93.45,2.72,2.16-.37,3.07.72,6.08.57,9.14-.07,1.45-.44,2.55-2.46,2.62a1.65,1.65,0,0,0-1.82,1.61,21.08,21.08,0,0,0,0,3.81c.12,1.25,1.14,1.69,2.6,1.79a56.82,56.82,0,0,0,7.49.44c1.36-.08,2.4.3,2.27,1.6-.33,3.3.73,6.53.59,9.82-.06,1.37-.5,2.39-2.34,2.48a1.8,1.8,0,0,0-2,2c-.07,1,0,2.09,0,3.14,0,1.36.9,2,2.53,2.1a59,59,0,0,0,7.76.45c1.26-.08,2.2.34,2.1,1.51-.3,3.29.7,6.53.59,9.81,0,1.47-.49,2.51-2.5,2.59-1.44.06-1.74.94-1.81,1.86a25.27,25.27,0,0,0,0,3.37,1.82,1.82,0,0,0,2.26,1.94c1.77-.15,2,.63,2.07,1.89.11,5,.15,5,5.91,5.29,1.93.1,2.72.87,2.71,2.42,0,3.21.07,6.43,0,9.65-.06,2,.94,2.84,3.36,2.79,5.19-.12,4.84-.25,4.74,4-.06,2.4.82,4.71.61,7.13-.12,1.51-.4,2.7-2.58,2.75-1.17,0-1.45.74-1.72,1.47a2.22,2.22,0,0,0-.05.45c-.67,4.77-.15,5.26,5.58,5.26,8.12,0,7.38-.61,7.37,6.15,0,2,0,3.89,0,5.84a2,2,0,0,1-2.19,2.35c-1.72.08-2,1-2.13,2.1-.51,4.79-.16,5.12,5.49,5.12,1.44,0,2.88,0,4.32,0,2.12-.07,3.19.65,3.16,2.49,0,3.14,0,6.28,0,9.43,0,1.38-.52,2.37-2.37,2.44a1.74,1.74,0,0,0-1.92,1.78,29.13,29.13,0,0,0,0,3.37c0,1.36.95,2,2.56,2.07a58.59,58.59,0,0,0,7.49.44c1.32-.08,2.45.21,2.33,1.54-.3,3.3.7,6.53.6,9.82,0,1.48-.55,2.49-2.54,2.56a1.64,1.64,0,0,0-1.75,1.67c-.12,1,0,2.09-.06,3.13,0,1.56.82,2.28,2.73,2.4a62.51,62.51,0,0,0,7.5.44c1.07-.07,2.2.15,2.13,1.22-.28,4.18,1.11,8.29.45,12.5-.22,1.44-1.16,1-2,1.09a1.78,1.78,0,0,0-.83-.43A2.12,2.12,0,0,1,950.39,724Z" transform="translate(-822.78 -220.19)"/><path class="cls-6" d="M994.08,680.08c-.08-5.14.42-10.28-.37-15.42-.36-2.34.7-4.71.9-7.06.69-8.08,1.15-16.18,1.7-24.27.63-1.84,0-3.73.33-5.55s-.23-4.07,1.86-5.6c.46-.34.3-.19-.15-.17-1,0-.87-.75-.93-1.29-.45-3.82,1.17-7.51,1-11.32,0-.46.16-1.18,1-1.1a1,1,0,0,1,.84,1.26c-.44,3.58,1.92,7,1,10.58.41-1.23.16-2.49.41-3.71s.77-2.2,2.3-2.07c1.37.12,1.2,1.33,1.28,2.2.53,5.34,1.61,10.66,1.12,16.06-.14,1.57.62,2.33,2.64,2.31,5.4,0,10.8,0,16.2,0,1.88,0,2.72-.53,2.86-2.19.35-4.08,1.59-5,6.65-5,13.68,0,27.36,0,41,0,3.27,0,4.11.26,4.26-3.09.13-3,1.82-4,6-4.07,11.07-.07,22.14,0,33.21,0a20.35,20.35,0,0,1,5.6.4c-.07-1.44-.78-3.12.93-3.78s2.08,1.09,3.14,2.36c-.5-1.62-1.58-2.38-2.27-3.33-1.77-2.41-1.27-4.91-.52-7.38.39-1.28,3.41-2.22,5.33-1.82a6.68,6.68,0,0,1,2.93,1.29c-.4-1.65,1.85-2.84,1.09-4.5,0,.47.23,1-.23,1.55a.77.77,0,0,1-1.09-.34c-.81-2.66-3.26-2.53-5.75-2.46a43.93,43.93,0,0,1-4.59-.06c-1.82-.15-2.75-1-2.78-2.51s.86-2.54,2.83-2.7c1.43-.12,2.87-.07,4.31-.08,2.32,0,4.63.2,6.57-1.39,1.13-.93,2-.15,2.21.91a12.57,12.57,0,0,0,1.9,4.41,2.53,2.53,0,0,1-.15,2.16c-1.62,3.25-2.46,6.71-3.9,10a9,9,0,0,1-1.82,2.92h0c-1.08,4.29-3.62,8.14-5.42,12.22a2.41,2.41,0,0,1-1.08,1.25h0c-.64.66-.24,1.68-1.11,2.26l0,0c-1.5,2.53-1.92,5.49-4.35,7.65h0a16.77,16.77,0,0,1-4.29,7.22h0c-1.82,4.21-4.75,7.93-7.6,11.68l0,0c-3,5.72-7.58,10.61-11.36,15.92a4.17,4.17,0,0,1-1.57,1.19h0a27.73,27.73,0,0,1-6.57,8h0c-3.18,3.94-6.08,8.06-10.42,11.25-1.75.62-2.15,2.14-3.16,3.25a7.62,7.62,0,0,1-1.25,1.15c-2.25,1.35-3.51,3.37-5.1,5.17a3,3,0,0,1-1.4,1.39,22.85,22.85,0,0,1-3.48,3l.06.06c-3.76,4.55-8.74,8.15-13.43,12-1,.85-1.84,2-3.45,2.33-.32,0-.47.13-.47.39a33.62,33.62,0,0,1-8.69,6.78l0,0a21.65,21.65,0,0,1-6.48,4.52l0,0a5.7,5.7,0,0,1-2,1.59,12.69,12.69,0,0,0-2.12,1.55c-2.82,1.87-5.75,3.61-8.73,5.29a4.46,4.46,0,0,1-3.59-.69,4.77,4.77,0,0,1-.62-.36,14.74,14.74,0,0,0-2.55-1.71c-1.41-.88-2.2-2.22-3.44-3.23a43.68,43.68,0,0,1-5.3-7.61,23,23,0,0,0-2-4.17,3.06,3.06,0,0,1-.26-.55,7,7,0,0,0-1-2.46,3.64,3.64,0,0,1-.25-.57c-.25-1.12-.78-2.17-1.14-3.26-.69-2.19-1.2-4.4-1.83-6.6a3.48,3.48,0,0,1-.21-.62,11.18,11.18,0,0,0-.5-2.55,4,4,0,0,1-.21-.67c-.55-2.89-1.24-5.76-1.74-8.66-.46-4.81-1.25-9.59-1.49-14.42C993.43,683.38,992.84,681.66,994.08,680.08Z" transform="translate(-822.78 -220.19)"/><path class="cls-7" d="M1119,385l-1.39-1.43c-.72.94-.78,1.95-3.12,1.66-1.74-.22-4.24-.71-6.27.26a7.84,7.84,0,0,1-3.42.43h-27c-3.67,0-3.67,0-3.67,3.15a10.46,10.46,0,0,0,0,1.12c.23,2.11-.86,3-3.45,2.94-8.37-.08-16.74,0-25.11,0-9.63,0-19.27.05-28.9,0-2.36,0-3.35.62-3.07,2.58.09.67,0,1.35,0,2,.14,1.94-1,2.63-3.25,2.65-5.94,0-5.94.09-5.94,5.06,0,4.19,0,8.38,0,12.57,0,.74.21,1.53-.42,2.17s-.84,1.46-2,1.19-.79-1.07-.79-1.7c0-4,0-8.08,0-12.12,0-1.93.17-3.88-.85-5.75-.15.38-.33.83-.48,1.19-.52-3.74-2.49-7.3-2-11.27s.1-8.07.09-12.11c0-.35.09-.76-1.07-1.15v21.45a.7.7,0,0,1-.89-.26,5.83,5.83,0,0,1-.51-3.3c0-7.63-.15-15.25,0-22.87.27-11.37-.72-22.71-.57-34.07.05-4,.29-7.92.08-11.88-.39-7.53-.63-15.07-.51-22.61a6.46,6.46,0,0,0-.4-2,5.45,5.45,0,0,1-.2-1.55c.32-9-.7-18-.57-27,.22-2.69,0-5.38.1-8.07a6.51,6.51,0,0,1,.19-2,1.29,1.29,0,0,1,1.27-1,1.32,1.32,0,0,1,1.48,1.05,4,4,0,0,1,.12,1.78c-.64,5.44-.14,10.89-.1,16.33s.51,10.74.27,16.11c-.14,3.1.09,3.18,3.7,3.21a69,69,0,0,1,8.62.28c1.23.17,2.39.07,2.76-1.18.59-1.94,2.37-2.23,4.39-2.23q9.18,0,18.35,0c1.93,0,3.53-.12,4.11-2.05.35-1.17,1.73-1.54,3-1.48,2.73.13,5.15-.23,6.74-2.32a2.52,2.52,0,0,1,2.43.58c2.06,1.81,4.34,3.5,5.55,5.88l0,0a3.91,3.91,0,0,1,2,1.88l0,0c4,3.39,7.28,7.21,10.84,10.87a7.79,7.79,0,0,1,1.07,1.79l.63.77a6.47,6.47,0,0,1,2.64,2.73h0c2.41,1.74,3.67,4.16,5.39,6.31l0,0a7.05,7.05,0,0,1,2.17,2.72h0a2.75,2.75,0,0,1,1.09,1.45c0,.15,0,.25.2.3,1.56.9,2.23,2.32,3.07,3.64h0a4.75,4.75,0,0,1,2.14,2.73h0c3.31,3.41,5.76,7.27,8.36,11.06,2.07,3,4.27,6,6.15,9.08a18.2,18.2,0,0,1,1.76,3.2l0,0c1.78,2,3.31,4.09,3.78,6.61a1.48,1.48,0,0,0,.14.87c.27.65,1.32,1.39.22,2s-1.62-.56-2.32-1c.41,1-.34,1.4-1.26,1.59a1.26,1.26,0,0,1-1.65-1.11c-.3-1.86-1.69-2-3.52-1.75-3.94.49-7.91.18-11.87.23-1.69,0-2.93.33-3.51,1.84-.65,1.68-2.35,2.15-4.29,2.19-3.33.06-6.66,0-10,0-1.51,0-2.81.17-3.49,1.57-.8,1.64-2.67,1.56-4.39,1.57q-14.18,0-28.35,0c-2.66,0-5.23-.22-6.23,2.62-.37,1.05-1.89,1.28-3.19,1.37-1.53.11-3.06.09-4.59.06-2.29,0-4.3-.07-5.64,2.11-1,1.58-3.4.94-5.24,1.05-2.67.15-3.3.76-3.14,2.94.09,1.27.74,1.94,2.3,2q9.59.09,19.17,0a2,2,0,0,0,2.27-2c.62-5.08.74-5.16,6.81-5.16h40.52c4.34,0,4.34,0,4.57-3.5.18-2.72,1.19-3.61,4.51-3.65,7.2-.1,14.4-.07,21.6,0,2.1,0,4.23.52,5.07,2.55a2,2,0,0,0,1,1c1.22.81,2.15,1.74,1.83,3.17-1.1,0-1.53.9-1.3,2.59.21.21,0,.51.26.72-.14-.35-.15-.74-.51-1,.76-1.08,1-1.14,1.7-.28s.66,1.68,1.34,2.35c.28.29.08,1.38,1.21.72C1118.66,382.67,1120,383.5,1119,385Z" transform="translate(-822.78 -220.19)"/><path class="cls-8" d="M996.32,399.81h.53c-.37,39.52.56,79,.55,118.54a2,2,0,0,1,.69,1.43c0,6.71.32,13.42-.16,20.13,0,5.39,0,10.78,0,16.16,0,.71.52,1.93-1,1.88-1.38,0-1.14-1.17-1.09-2,.31-5.61,1.63-11.17,1.08-16.82-.31-3.18-.93-6.34-.79-9.55-.08,3.83-.77,7.65.09,11.47.27,1.19.32,2.31-1.71,2.4-1.7.07-3.27.2-3.05-2,.2-2,0-4,0-6.06a2.44,2.44,0,0,0-2.51-2.7c-1.57-.16-1.84-.94-1.82-2,0-2,0-3.89,0-5.84,0-1.64-.66-2.82-2.81-2.92-1.42-.07-1.54-.74-1.53-1.65,0-2.1,0-4.19,0-6.29a2.54,2.54,0,0,0-2.63-2.85c-1.43-.15-1.71-.87-1.7-1.88,0-2,0-4,0-6.06a2.48,2.48,0,0,0-2.66-2.81c-1.55-.08-1.7-.76-1.68-1.77,0-2.09,0-4.19,0-6.28a2.45,2.45,0,0,0-2.48-2.73c-1.56-.16-1.87-.9-1.85-2,0-1.94,0-3.89,0-5.84,0-1.63-.63-2.83-2.79-2.94-1.39-.07-1.57-.7-1.55-1.63,0-2.1,0-4.19,0-6.29a2.54,2.54,0,0,0-2.61-2.87c-1.42-.14-1.73-.84-1.72-1.86,0-2,0-4,0-6.06a2.49,2.49,0,0,0-2.64-2.83c-1.53-.08-1.73-.72-1.7-1.75,0-2,0-4,0-6.06,0-1.63-.59-2.8-2.73-3-1.47-.15-1.61-1-1.6-1.95,0-1.94,0-3.89,0-5.83,0-1.64-.6-2.85-2.76-3-1.38-.07-1.62-.66-1.58-1.61s0-2,0-2.92a2.34,2.34,0,0,0-2.32-2.6c-1.89-.19-2-1.12-2-2.36,0-3,0-6,0-9,0-1.71-.56-3-2.89-3.1-1.47-.06-1.46-.83-1.45-1.7,0-2,0-4,0-6.06,0-1.62-.56-2.81-2.71-3-1.46-.14-1.63-1-1.62-1.93,0-2,0-4,0-6.06,0-1.57-.74-2.65-2.73-2.76-1.35-.07-1.62-.63-1.6-1.59,0-2.09,0-4.19,0-6.28a2.54,2.54,0,0,0-2.57-2.91c-1.6-.16-1.79-1-1.77-2.05,0-1.87,0-3.75,0-5.62,0-1.7-.53-3-2.86-3.11-1.46-.07-1.49-.81-1.48-1.69,0-2.09,0-4.19,0-6.28a2.44,2.44,0,0,0-2.42-2.77c-1.73-.18-2-1-1.92-2.19,0-1.95,0-3.89,0-5.84a2.48,2.48,0,0,0-2.7-2.77c-1.6-.07-1.64-.83-1.63-1.8,0-2,0-4,0-6.06a2.53,2.53,0,0,0-2.54-2.92c-1.6-.17-1.82-1-1.8-2,0-1.95,0-3.89,0-5.84,0-1.65-.68-2.81-2.83-2.91-1.44-.06-1.52-.77-1.5-1.67q0-1.9,0-3.81c0-.87.15-1.41,1.35-1.86,1.44-.53,2.85-1.43,2.93-3.26-1.88.54-3.41,1-4.46,2.22s-2,1-3-.09-2.05-1.57-3.5-.58a34,34,0,0,1,5.49-6.76,1.21,1.21,0,0,1,.37.59c.34,1.1-.73,2.35.72,3.26a5.4,5.4,0,0,1,2.25-3.46c-1.23,1.37-1.6,1.39-3.35-.39l1.25-2.06a24.23,24.23,0,0,1,2.09-2.35,108.5,108.5,0,0,0,7.52-8.63c1.28-1.05,1.93-2.51,3.35-3.47l2-1.86c.62-.55,1.15-1.15,1.7-1.74a.5.5,0,0,1,.38-.07,5.53,5.53,0,0,1,1.19-.53c.78-.2,1.64-.4,2.23.24s.27,1.35-.33,1.82c-1.57,1.25-2.43,3-4.08,3.69.32-.28,1.24-.44,1.86-1.17a2.56,2.56,0,0,1,4.38.53c.64,1.67,1.86,2,3.63,2,.54,0,1.08,0,1.62,0,2.68.15,3.32.62,3.39,2.88.13,3.66.06,7.33,0,11a40,40,0,0,0,.52,5.36c.19,1.56,1.13,2.28,3,2.28.63,0,1.26.05,1.89.05,2.26,0,3.24,1,3.25,2.79q.06,5.61,0,11.21a37,37,0,0,0,.56,5.36c.2,1.46,1.13,2.12,2.84,2.14.54,0,1.08,0,1.62,0,3,.16,3.55.6,3.61,3.16.09,3.67,0,7.33,0,11a36.88,36.88,0,0,0,.54,5.13c.19,1.57,1.2,2.25,3,2.23l.81,0c3.83.17,4.24.51,4.27,3.77q.06,5.17,0,10.33a40.18,40.18,0,0,0,.53,5.13c.19,1.54,1.09,2.3,3,2.3.63,0,1.26,0,1.89,0,2.25,0,3.24,1,3.26,2.79.05,3.66,0,7.33,0,11a43.59,43.59,0,0,0,.5,5.36c.19,1.69,1.23,2.39,3.16,2.37.45,0,.9,0,1.35,0,3,.17,3.55.63,3.61,3.18.09,3.59.06,7.18,0,10.77a42.13,42.13,0,0,0,.54,5.36c.16,1.44,1,2.16,2.76,2.19l1.34,0c3.47.16,4,.57,4,3.54,0,3.37,0,6.73,0,10.1a43.52,43.52,0,0,0,.52,5.58c.18,1.55,1.06,2.21,2.92,2.33,4.66.29,4.65.34,4.66,4.24,0,3.12,0,6.25,0,9.36.13.08,0,0,0-.17-.76-19.8-.56-39.6-.56-59.4C995.5,402.21,995.15,400.88,996.32,399.81Z" transform="translate(-822.78 -220.19)"/><path class="cls-9" d="M996.32,399.81V464h-.55c0-3.75-.13-7.5.05-11.24.1-2-.55-3-3.11-2.62-.52.07-1.08,0-1.62,0-2.35.15-3.21-.67-3.5-2.7-.82-5.67-.27-11.34-.45-17,0-1.07-.09-1.79-1.81-1.89-6.71-.36-6.74-.41-6.83-6.27-.07-4.34-.12-8.69,0-13,.06-1.81-.64-2.47-2.75-2.24-.8.08-1.62,0-2.43,0-2,.07-2.76-.73-3-2.4-.83-5.36-.37-10.74-.48-16.11-.06-3,0-3-3.62-3-4.15,0-3.94,0-4.55-3.38-.91-4.92-.29-9.84-.47-14.76-.13-3.81.47-3.39-4-3.42h-1.35c-1.91,0-2.58-.78-2.83-2.33-.76-4.76-.39-9.54-.49-14.31a20.32,20.32,0,0,1,0-2.92c.2-1.6-.61-2.18-2.47-2-.89.08-1.8,0-2.7,0-2,.06-2.75-.74-3-2.41-.86-5.66-.39-11.34-.44-17,0-1.65-.54-2.37-2.59-2.15-.88.09-1.79,0-2.69,0-1.88,0-2.66-.68-2.91-2.26-.68-4.31-.45-8.64-.5-13v-.68c0-1.71.6-3.79-.34-5.05-1.1-1.47-3.82-.34-5.8-.61-1.34-.18-2.87-.16-2.21-2,.27-.72-.19-1.41-1.1-1.54s-1.76-.29-2.49.73c-.93,1.28-2.71,1.92-4.24,2.71-.15.08-.49-.09-1.22-.24a32.82,32.82,0,0,0,6.23-5.23c.48-.49,1.62-.81,1.25-1.56-.46-.94-1.39.11-2.12-.09a5.39,5.39,0,0,0-1.07,0A92.3,92.3,0,0,1,933,281.23c1.18-1.26,2.78-2.21,3.86-3.55a83.74,83.74,0,0,1,9-7.68c1.71-1.64,4.17-2.66,5.47-4.63l.49-.34c1.7-.33,2.39-1.67,3.59-2.51a14,14,0,0,1,2.67-1.82,2.32,2.32,0,0,1,2.79-.72c1,.49,1,1.34.65,2.17a.94.94,0,0,1-.62.45c-.36.06-.72,0-1.07,0,1.09,1.68-1,3.83,1.19,5.41a1.57,1.57,0,0,1,.32,2.29c-.5.68-1.35.63-2.18.52-.56-.07-1.32-.47-1.48.4a1.49,1.49,0,0,0,.87,1.75c.81.37,1.3-.07,1.76-.61,2-2.39,4.14-3.05,7.5-2.36a2.9,2.9,0,0,1,2.59,2.29,11,11,0,0,1,.07,3.13c-.17,1.77-1.35,2.7-3.47,2.83l-1.08,0c-3.74.11-5.1,1.81-3.89,4.8a1.7,1.7,0,0,0,1.54,1.07,5.6,5.6,0,0,0,1.08.07c6.15-.44,6.13,2.1,5.77,6.29-.1,1.22-1.09,1.81-2.37,2.18-.68.2-1.38.47-1.34,1.22a.83.83,0,0,0,.87.73c.89.06,1.15-.52,1.47-1.08,1.2-2.07,3.68-2.73,7.35-2,2.51.48,2.75,2.07,2.78,3.81,0,3.59-.84,4.39-5.09,4.49-3.17.07-4.88,2.8-3.26,5.15a2.16,2.16,0,0,0,1.83.76c1.08.07,2.16,0,3.24.09a3.65,3.65,0,0,1,2.54,1.11c1.75,2,.67,6.1-1.91,7.34-.63.3-1.35.54-1.13,1.32a.85.85,0,0,0,.76.56,1.25,1.25,0,0,0,1.5-1c.66-2.47,3-2.17,5.15-2.18s4,.26,4.52,2.37c.28,1.13,1.28,1.48,2.54,1.68,2.56.41,3.29,1.22,2.54,3.26a9.86,9.86,0,0,0-.4,5.07,2.59,2.59,0,0,1-2.3,3.13c-1.7.38-1.9,1.41-1.88,2.6,0,2.13.21,4.31-3.14,5a.82.82,0,0,0-.65,1.1.88.88,0,0,0,.75.57,1.07,1.07,0,0,0,1.28-.6c.45-1.66,1.81-2.39,3.64-2.93,1.19-.35.82-1.53,1-2.4.21-1.34-.62-2.87,1-3.95a.81.81,0,0,1,.64.44,26.31,26.31,0,0,1,.19,3.55,26.06,26.06,0,0,1,.44-6.47c.07-.41.24-1,.91-.94s.75.61.73,1c-.13,2.58-.3,5.16-.27,7.14-.54-2.71.28-6-.19-9.37-.86-6.37-.4-12.84-.17-19.27a1.47,1.47,0,0,1,.68-1.19,4,4,0,0,1,.5,1,9.11,9.11,0,0,1,0,1.57c0,15.29.3,30.59.72,45.87C996.39,367.43,996,383.62,996.32,399.81Z" transform="translate(-822.78 -220.19)"/><path class="cls-10" d="M994.7,302.81c-.3,10.61.55,21.23-.53,31.84v-9.79c-1.21,3.29-1.1,6.66-1.15,10h-1c0-2.3,0-4.59.12-7.09.32-.82,0-1.69.21-2.53-.17.9.12,1.85-.21,2.53-1.28,1.8-.5,3.54-.62,5.22-.1,1.27-.29,2.26-2.19,2.16-1.66-.08-2.25.64-2.18,1.93s-.92,1.55-2.08,1.62a2,2,0,0,1-2.14-1.39,1.56,1.56,0,0,1,1.54-2c2.95,0,2.76-1.57,2.69-3.19,0-.83,0-1.65,0-2.47a1.44,1.44,0,0,1,1.68-1.63c2.77.07,2.88-1.48,2.53-3s-.59-3,.4-4.51c1.09-1.72.15-2.77-2.18-2.81-1.83,0-3-.57-3-2.2,0-1.42-1-1.79-2.4-1.85-1.17,0-2.34,0-3.51,0-1.42,0-2.28.41-2.2,1.68s-.88,1.91-2.32,1.87a1.82,1.82,0,0,1-1.95-1.58c-.1-1.15.73-1.9,2.07-1.92,1.87,0,2.29-.85,2.2-2.17a20.36,20.36,0,0,1,0-2.47c.1-1.78-.83-2.62-3-2.6-6.27.06-5.56.81-5.65-5.1,0-1.57.74-2.21,2.57-2.08.26,0,.54,0,.81,0,6,.27,5.33-.63,5.24-5.41,0-1-.84-1.68-2.07-1.74-1.61-.08-3.23,0-4.85,0-1.27,0-1.73.7-1.67,1.65.09,1.38-.87,1.91-2.32,1.88a1.81,1.81,0,0,1-1.95-1.57c-.09-1.27.85-1.93,2.33-2s2-.78,1.93-1.91c0-.38,0-.75,0-1.13,0-4.16,0-4.16-4.9-4.16-3.74,0-3.74,0-3.75-3.09a13.36,13.36,0,0,0,0-1.79c-.22-1.78.73-2.51,2.82-2.31a4.86,4.86,0,0,0,.54,0c6,.28,5.33-.62,5.25-5.4a1.79,1.79,0,0,0-.65-1.17c-1.86-1.64-7.31-.62-7.92,1.51-.33,1.14-1.2,1.45-2.33,1.42a1.83,1.83,0,0,1-1.95-1.57,25.65,25.65,0,0,1,0-3,3.15,3.15,0,0,1,.84.08c1,.6,2.16,1.64,3.19.53.75-.82-.08-1.77-1.26-2.34s-.62-1.63-.59-2.47,1.4-1.69-.72-2.25c-.7-.19.5-1.06,1-1.48s1.13-.41,1.06.46c0,.41.38.42.73.45,3,.9,6.22.49,7.76-1.13-2.66.61-4.91,2.48-7.76,1.13-.17-.72.49-1.68-.67-2.13s-1.72.45-2.54.79c-.17-.11-.23-.23-.2-.35s.07-.2.12-.2c3.58-3.33,7.85-6,12-8.83a5.57,5.57,0,0,0,3.14-2c4.24-4.09,8.72-8,11.48-13a41.11,41.11,0,0,0,2.67-6.53,27.41,27.41,0,0,0,.81-5.61,1.8,1.8,0,0,1,.1-.65,2.28,2.28,0,0,1,1.88,0,2.2,2.2,0,0,1,.64.39,2.73,2.73,0,0,1,.55,2.94c1.09,5.24.91,10.56,1.65,15.82,1.33,9.53,1.14,19.1,1.12,28.67,0,.8-.28,1.64.26,2.41C994.08,283.66,995.08,293.23,994.7,302.81Z" transform="translate(-822.78 -220.19)"/><path class="cls-11" d="M1004.47,729.39l5.35,7.67c-.81,1-1.34.3-1.81-.25a4.39,4.39,0,0,0-2.56-1.78c.74,3.74-1.74,6.69-2.92,9.91-2.06,5.62-4.79,11.07-6.26,16.86a10.46,10.46,0,0,1-2.6,4.12,4.41,4.41,0,0,0-1.48,3.9c.55,2.86-2.31,4.74-2.9,7.27a17.83,17.83,0,0,1-.79,1.66c-.25.67-.08,1.76-1.17,1.76s-.9-1.15-1.38-1.76c-.58-3.88-1.64-7.71-2.05-11.62l0-.88a2.55,2.55,0,0,1-.71-2.62c1.19-.84,2.06-.88,2.29.31-.84-2.05,2-3.14,2.8-5s1.12-3.73,3.68-4.68c.89-.32.49-1.8.91-2.72a117.79,117.79,0,0,0,4.5-12.84c.6-1.81,2.27-3.29,3-5.14.37-1,.68-1.77.06-2.76-1.59-2.55-1.23-3.69,1.49-5.57.59,0,.86.47.79.71C1002.23,727.53,1004,728.23,1004.47,729.39Z" transform="translate(-822.78 -220.19)"/><path class="cls-12" d="M1008.73,766.24c-1.1,1.38-.12,3.1-1.08,4.5a84.86,84.86,0,0,0-.61,11.15,7.22,7.22,0,0,1-.07,2c-1.28,1.15-1-.23-1.42-.39.64,1.24.27,2.52-.49,3.9-1.63,2.91-1.73,6.21-3.2,9.19-3.08,6.26-5.1,12.82-7.71,19.21-.65,1.6-1.74,1.82-4.67,1-1.35-2.39-.66-4.93-.72-7.41a10,10,0,0,0,.38-2.88c.11-.76,0-1.77,1.45-1.73.14,0,.26.21.29.16a.94.94,0,0,0,0-.44c0-2.61.63-5,3.4-6.69.9-.54.73-1.49.71-2.3a15.44,15.44,0,0,1,2.5-9.18,39.52,39.52,0,0,0,4.45-9.79c1.17-3.82,3.06-7.46,4.33-11.27a12.65,12.65,0,0,0,.63-4,3.51,3.51,0,0,1,2.14-3.61,1.21,1.21,0,0,1,.86,0,.91.91,0,0,1-.1,1.36h0a22,22,0,0,0-.55,4.84C1009.23,764.7,1009.48,765.55,1008.73,766.24Z" transform="translate(-822.78 -220.19)"/><path class="cls-13" d="M981.73,759.51c0-.15,0-.3,0-.45-.76-.78-.58-1.83-1.08-2.69h0a1.49,1.49,0,0,1-.53-.85c-.08-.72.25-1.51-.51-2.11a1.29,1.29,0,0,1-.42-1.21c.17-3.65,3-6.73,3.17-10.39a.89.89,0,0,1,1.26-.82c.88.31,1.54.56,1.67-.53s.78-2.81-.52-3c-2.38-.4-1.11-1.44-.71-1.92a6.07,6.07,0,0,0,1.27-3.14c.13-.71-.11-1.78.9-1.93s.76,1.14,1.35,1.56c3.39-4.47,4.3-9.69,6.3-14.59.2-.5.18-1.13.65-1.46,2.56-1.77,1.88-4,1.37-6.21-.23-1-.47-2,.62-2.83,1.06.49.21,1.4.91,1.85h0c.68.83-.25,1.9.59,2.7l0,0a9.91,9.91,0,0,1,.12,6.07c.25-.51-.36-1.31.9-1.57.32,1.05.8,2.06.31,3.17a2.69,2.69,0,0,0-.43,3,9.62,9.62,0,0,1,.67,5.94c-.11.83.47,2-.88,2.34s-1.33-1.13-1.89-1.5c-2.33,3-2.72,6.73-4.67,10a21.53,21.53,0,0,0-2.36,6.4c-.45,2-1.94,3.71-2.09,5.76a1.11,1.11,0,0,1-.93,1c-.77.17-.76.16-.54.92a3,3,0,0,1-.16,2.63,5,5,0,0,0-.67,3.47c.18,1.44-.53,2.32-2.47,2.17C981.74,761,982.24,760,981.73,759.51Z" transform="translate(-822.78 -220.19)"/><path class="cls-14" d="M982.76,760.87c1.48,0,2.55-.32,1.92-1.86a3.26,3.26,0,0,1,.68-3.61c1-1.16.32-2.36-.32-3.28-.44-.63-1.92-1.07-.63-1.77s1.65.57,2.25,1.75c2.39-8.87,6.51-16.82,9.71-25.23l2,3.22c.4-2.42,1.24-4.73,0-7.11-.65-1.25-1.34-2.8.64-3.88l.32.16c1.57,1.81,1.57,1.81,1,3.89-.11.29.4.06,0,0,0,0,0-.07,0-.2,0-.46.05-.91.85-.76l0,0c.49.87.57,1.86,1.11,2.71l0,0c.16.2.13.37-.11.5-.67.94-2.08,1.52-2.07,2.77,0,.76-.35,1.57.76,2.2,1.52.85,1.12,2.19.33,3.15a3.76,3.76,0,0,0-1.14,2.86c0,.21,0,.53-.15.64-3.69,2.7-2.84,6.69-4.2,10a45,45,0,0,0-2.05,4.39,6.85,6.85,0,0,0-.6,2.34c.08,1-.2,1.77-1.72,1.71-.56,0-1.33.26-1.26.65.34,1.82-1,3.57-2.06,4.4-2.22,1.76-1.54,4.17-2.74,6.22-1.15-1.12,1.17-3.26-2-3.2-.17.2-.34.2-.5,0l0-.9C982.47,762.06,982.25,761.46,982.76,760.87Z" transform="translate(-822.78 -220.19)"/><path class="cls-1" d="M831.55,479.74c-.55,8.94-1.5,17.86-2,26.8-.4,7.55.18,15.07.52,22.6.44,9.62,2.42,19.11,3.66,28.67-.56.35-1.67,1.13-1.33-.2.89-3.55-1.13-6.83-.94-10.29a1.34,1.34,0,0,0-.33-1c-1.39-1.12-1.44-2.23-.83-3.78.75-1.94-1.14-3.68-1.51-5.61-.14-.72-.5-1.21,0-2a5.4,5.4,0,0,0,.25-5.2,9.1,9.1,0,0,1-.79-4.08c0-6.81.05-13.62,0-20.43-.06-5.2,2-10.29,1.11-15.53-.16-1,.36-2-1.5-2.44-1.24-.31-.63-1.37.44-1.45s1-.56,1.05-1.16A13.15,13.15,0,0,1,831.55,479.74Z" transform="translate(-822.78 -220.19)"/><path class="cls-15" d="M998.47,819.24h-1.08c-.42-.51-1.72.15-1.75-.9a2.41,2.41,0,0,1,.45-.56,6.44,6.44,0,0,1,3-1.79c1.26-.21,1.63-1,1.94-1.9,1.1-3.35,2-6.78,4.38-9.74.46-.57.34-1.3.54-2s.06-1.27,1.18-1.08c.51,4.27.08,8.56.24,12.83,0,.8-.26,1.63.27,2.39a3,3,0,0,1,.53,1.26c.74,3.37-.54,4.29-4.49,3.08-1.18-.36-2.55,0-3.6-.75C999.68,819.68,999,819.58,998.47,819.24Z" transform="translate(-822.78 -220.19)"/><path class="cls-1" d="M887.78,332.52q-4.47,6.83-8.93,13.67c-4.18,6.41-7.87,13-11.53,19.63-.33.6-.48,1.29-1.17,1.71-.6-2.73,1.68-4.58,2.83-6.81.79-1.54,1.6-3.13,2.31-4.72.87-2,1.48-4.55,2.76-5.72,1.71-1.55.9-2.55.63-3.72-.37-1.62,1.43-2.7,1.15-4.22a19.35,19.35,0,0,0,2.41,0c2-.28,3.13-1.74,2.37-3.21-.6-1.14,0-1.47.93-2.38,1.37-1.38,3.17-2.52,4.23-4.13C886.41,331.61,887.09,331.85,887.78,332.52Z" transform="translate(-822.78 -220.19)"/><path class="cls-1" d="M1107.2,363.84c-.61-2.27-2.69-4-3.42-6.21,2.16.52,2.8,1.94,3.41,3.56.76,2,2.59,3.56,3.38,5.65.39,1,1.74-.29,2.43-1.12.26.37.4.54.51.72.68,1.23-1.51,2.17-.81,3.05s2-.63,3.24-.17.74,1.34.81,2.22c-1-.25-2.23-1-2.89-.1-.86,1.14.79,1.91,1.25,2.86.08.18.83.11.72.8-.36,2.3.6,4.08,3.34,5,.74.24.19.53.18.84a7.61,7.61,0,0,0,2.85,6.32c.44,3.17,2.31,4.91,6.22,5.74-1,1.37-3.58-.46-4.13,1.51-1.41-2.66-2.81-5.34-4.24-8a17,17,0,0,0-1-1.51,5.62,5.62,0,0,0-1.6-3.22,8.37,8.37,0,0,1-2.65-4.86,6.51,6.51,0,0,0-1.71-3.17A35.61,35.61,0,0,1,1107.2,363.84Z" transform="translate(-822.78 -220.19)"/><path class="cls-1" d="M1150.36,559.73c-.51,1.91.92,3.9,0,5.71-1.32,2.56-1.8,4.89.76,7.11a1.12,1.12,0,0,1,.16,1.06c-1.26,4-1,8-.9,12.09,0,1.66-1.2,2.8-1.69,4.26a2.76,2.76,0,0,1-.06-3.27,2.8,2.8,0,0,0,0-3.73,2.39,2.39,0,0,1-.41-1.94c.12-1.36-.68-1.73-2.12-1.54l-.33-.23a3.06,3.06,0,0,1-.36-2.11,12.1,12.1,0,0,1,.49-1.76,112.44,112.44,0,0,0,2.79-12.46c.22-1.12,0-2.41,1.29-3.28Z" transform="translate(-822.78 -220.19)"/><path class="cls-1" d="M1079.13,694.45c3.55-3,6.23-6.53,9.3-9.82.38-.4.55-1,1.27-1.09l.63,2.33c-1.81-.51-2.1.82-2.76,1.62-2.35,2.83-4.5,5.79-7.06,8.48-1,1.09-3.19,1.46-2.9,3.38l-.6-1.07a2.31,2.31,0,0,0,.7,2.85c-.78.64-1.54.38-2.22.45l-1.33.13c.35,2.41-3.62,1.63-3.9,3.65-.13.95-1.21.64-2,.72-.35-.1-.4-.25-.13-.46l1.1-1.32c1.85-1.75,3.34-3.77,5.36-5.41l1.1-1C1077,696.85,1077.61,695.35,1079.13,694.45Z" transform="translate(-822.78 -220.19)"/><path class="cls-1" d="M1103.8,357.65l-12.94-18.56c-1.11-1.59-2.65-3-3.33-4.78,1.53.94,3.59.2,5.29,1.22-1.19,1.08-2.26,2.25-.54,3.66,1.32-.23-.35-2.41,1.83-2.24-1.41,3.17,1,5.69,2.37,8.27.51,1,1.56,2.07,2.26,3.17.92,1.44,2.81.95,4.5,1.4-2.44,1.36-1.35,3.19-.58,4.37A5.06,5.06,0,0,1,1103.8,357.65Z" transform="translate(-822.78 -220.19)"/><path class="cls-1" d="M1028,273.26a9.08,9.08,0,0,1,6.75,4.68c1.17,1.88,3.51,1.83,5,1.2,2.06-.89,3.42.25,4.41.8a2.87,2.87,0,0,1,.87,4.17,6.79,6.79,0,0,0-2.85-3.37,2.35,2.35,0,0,0-2.72-.05c-.87.71.08,1.29.64,1.87a7.13,7.13,0,0,0,5.91,2.45c1.68-.12,2,.5,1.5,1.85-1.24-.57-3-2.18-3,.66l-.29.21a1.33,1.33,0,0,1-1.07-.15c-1.32-1.37-2.93-2.51-4.3-3.83a16.17,16.17,0,0,0-1.7-1.47c-.93-.88-1.79-1.81-2.82-2.62-1.64-1.39-3.33-2.73-4.94-4.14C1028.6,274.9,1027.62,274.34,1028,273.26Z" transform="translate(-822.78 -220.19)"/><path class="cls-1" d="M1153.62,521.06c.32-.65.63-1.31.94-2l.06,17.23c-1.12.11-1.22.83-1,1.48.53,2-1.35,4.38,1.35,6.11.46.29-.1.71-.61,1-1.18.62-1,1.41-.23,2.21-1.89.25-1.62,1.43-1.63,2.55,0,3.08-1.53,6.05-1.11,9.18.07.52-.43.76-1,.89l-.09-.07c-.93-.81-.67-1.79-.53-2.75,1.67-11.07,3.15-22.16,3-33.35A3,3,0,0,1,1153.62,521.06Z" transform="translate(-822.78 -220.19)"/><path class="cls-1" d="M1132.93,616.22c1.55-3.91,3.11-7.82,4.63-11.74a7.49,7.49,0,0,0,.89-3c.31-.41,0-.85.08-1.27.86-2.18,1.11-4.55,2.79-6.48l.38.11a7.16,7.16,0,0,0,.18,2.42c.54,1.18.21,1.92-1.29,2.4,2.45.92,2.86,2.15,1.34,3.63-.55.55-.14,1.11-.26,1.66s.16,1.26-.82,1.44c-.31.05-.85,0-1-.17-.45-.58.38-.89.54-1.36a1.94,1.94,0,0,0,0-.64c-1.7.64-2.7,2.62-3.16,4.91a39.63,39.63,0,0,1-2.2,6.63A2.32,2.32,0,0,1,1132.93,616.22Z" transform="translate(-822.78 -220.19)"/><path class="cls-1" d="M848.72,407l-8.49,26.67c.1-1.58-.6-3.22.82-4.71.52-.53.25-1.43,0-2.16s-.57-1.26.34-1.78c1.31-.73,2.13-1.41-.41-1.5-.86,0-.75-.71-.74-1.22,0-1.09,1.69-1.55,1.95-1.49,1.63.4,1.28-.47,1.26-1.13a7.1,7.1,0,0,1,1-3.58c1.25-2.45,1.07-5.22,2.17-7.77A1.84,1.84,0,0,1,848.72,407Z" transform="translate(-822.78 -220.19)"/><path class="cls-1" d="M1056.32,299.16c-2.58-1.88-4.24-4.47-7-6.25-.46-.33-1.08-.44-1.54-.78-.87-.81-1.64-1.68-2.55-2.46-.63-.54-1.52-1.07-1-2l.14-.12c1.74.61,2.94,2.94,5.42,1.17.61.7,1.23,1.4,1.84,2.11.35.4.28,1.22,1.06,1.16,4.74-.39,3,2.7,3.49,4.52A10.87,10.87,0,0,1,1056.32,299.16Z" transform="translate(-822.78 -220.19)"/><path class="cls-1" d="M1154.56,514.93c-.89-1.92-.64-4-.71-5.95a288,288,0,0,0-2.42-29,7,7,0,0,1,0-1.12c.47.08.91.24.93.68.1,2.57,1.21,4.93,2.13,7.35.32.84-.2,1.71-.77,2.66a5.17,5.17,0,0,0,0,4.79c1.8,3,.89,6.21,1,9.21A90.31,90.31,0,0,1,1154.56,514.93Z" transform="translate(-822.78 -220.19)"/><path class="cls-1" d="M929.86,712.35c.85,0,1.3.57,1.87,1,1.24.83,2.25,1.86,3.43,2.75h0c2.41,2,5.09,3.72,7.15,6,.29.32.92.57.43,1.1-1.47,1.05-2.42.67-3.18-.7a4.82,4.82,0,0,0-4.87-2.92,2.79,2.79,0,0,1-3.19-2.43c-.17-1-.16-2.11-1.34-2.52C928.16,713.88,928.47,713.21,929.86,712.35Z" transform="translate(-822.78 -220.19)"/><path class="cls-1" d="M1048.07,723.1,1065,708.79c-.17,1.65-.46,3.18-2.81,3.76-.58.15-1.33.82-1.37,1.28-.27,2.76-2.8,4.11-5,5.52-1.7,1.08-3.77,1.68-4.9,3.41C1050.36,723.52,1049,723.07,1048.07,723.1Z" transform="translate(-822.78 -220.19)"/><path class="cls-1" d="M1096.26,675.53l12.93-17.11c-.35,2.61-.45,5.33-4,6.61.57,1.77-2.25,2.63-1.68,4.5.22.72-1,1.3-1.78,1.74-1.24.73-2.29,1.28-2.39,2.81C1099.28,675.4,1098.38,676.66,1096.26,675.53Z" transform="translate(-822.78 -220.19)"/><path class="cls-1" d="M996,234.58c1.94.59,2.28,2.93,4.81,2.95.56,0,.52.86.19,1.13-1.17,1-.64,1.72,0,2.73.54.83.65,1.25,1.77.54a1,1,0,0,1,1.61.58c.19,1.3-.69.25-1.06.29a1,1,0,0,0-.92.7c-.16.53.1.85.83.79a.84.84,0,0,1,1,.84c-.46,2.11,1.33,4.05,2.58,4.77,1.73,1,.62,1.77.92,2.58l-.36.14a3,3,0,0,1-2.05-1.66c-3.18-4.78-6.45-9.51-9.33-14.41a2.58,2.58,0,0,1-.49-1.5A.69.69,0,0,1,996,234.58Z" transform="translate(-822.78 -220.19)"/><path class="cls-1" d="M1126.46,629.68q3.24-6.73,6.5-13.47c-.06,1.11,1.75,1.71,1.16,3-.24.54.3,1.49-1.19,1.07s-.9.94-1.47,1.38c-1,.81.43.58.73.77.92.57,1.19,1.62.22,1.71-4,.34-2.73,2.86-3.18,4.69C1128.31,629.12,1128.32,631.54,1126.46,629.68Z" transform="translate(-822.78 -220.19)"/><path class="cls-1" d="M1141.62,437.58l-7.56-20.68c1.56,0,1.45,1.35,1.72,2,1.48,3.33,3.25,6.65,3.61,10.21.12,1.24,1.61.87,1.87,2C1141.74,433.27,1142.29,435.38,1141.62,437.58Z" transform="translate(-822.78 -220.19)"/><path class="cls-1" d="M857.51,622.86c2.88,5.13,6.25,10.07,8.67,15.38-1.15-.76-2.18-1.78-3.95-1-.3.12-.84-.19-1.28-.25s-1.13-.08-1.23-.66a.89.89,0,0,1,.59-.94,1,1,0,0,1,1.4.22c.47.6,1.06.9,1.74.32s-.35-.85-.54-1.29c-.42-1-.78-2.63-1.45-2.73-3.55-.55-1.47-3.2-2.63-4.67C858,626.19,856.83,624.52,857.51,622.86Z" transform="translate(-822.78 -220.19)"/><path class="cls-7" d="M1028,273.26q3.35,3.14,6.71,6.25c.24.22.41.48.65.71.5.49.9,1,0,1.46a1.34,1.34,0,0,1-1.77-.56,4.9,4.9,0,0,0-1-1.52c-.56-.42,0,.27-.29.24a1,1,0,0,1-.59.31c-2.16-1.89-5.52-2.89-6.15-5.89-.18-.82-1.2-1.28-1.57-2-.51-1.05-.26-1.61,1.27-1.29.4.09.72.25.78.63Z" transform="translate(-822.78 -220.19)"/><path class="cls-1" d="M1109.17,658.44c2.41-4,4.76-7.92,7.6-11.68,0,.15,0,.3,0,.45.11,1.67-.89,3.95,3.27,3.57-2-.29-2.82,2-4.77.81-.51-.32-1.18.53-1.54,1s.18.75.6,1.07c.61.45,2.07,0,1.91,1.1,0,.38-.66.86-1.35,1-1.57.25-1.08-1.11-1.7-1.52C1111.59,655.46,1112.2,658.12,1109.17,658.44Z" transform="translate(-822.78 -220.19)"/><path class="cls-12" d="M1017.4,744.69c0,.3,0,.6,0,.89a44.55,44.55,0,0,0-4.32,6.3h0c-.7.45-.5,1.28-1.08,1.79s-.35,1.35-1.08,1.8h0c-.9.57.64,1.95-1.08,2.25h0a1.82,1.82,0,0,1-.59-2.08,33.37,33.37,0,0,0,1.69-6.53c.08-.86,1-1.17,1.83-1.47,1.23-.45,1.58-1.13.78-2.12a3.62,3.62,0,0,1-.78-1.42c-.25-1-.4-2,.55-2.73s1.62.57,2.54.59h0c-.54.94-1.26,1.94,1.06,1.61.34,0,.6.28.72.58A.63.63,0,0,1,1017.4,744.69Z" transform="translate(-822.78 -220.19)"/><path class="cls-1" d="M837,571.32a63.13,63.13,0,0,1,3.28,11.2c-2.1.11-2.67-1.19-3.39-2.44-.6-1-1-1.81,1-2,.38,0,.24-.81-.15-1.13s-1.15-.65-.87-1.45c.21-.6.46-1.38-.5-1.77-1.18-.49-1.37.63-2.33,1.19-.46-1.44-.6-2.45,1.49-2.75C836.1,572.07,837,572.25,837,571.32Z" transform="translate(-822.78 -220.19)"/><path class="cls-1" d="M841.31,585.67c1.81,4.59,3.67,9.18,5.41,13.79.75,2,1.94,3.86,2.19,6-1.72-.22-1.77-1.65-2.1-2.51-.88-2.28-2.2-4.45-3-6.7C842.7,592.79,840.56,589.44,841.31,585.67Z" transform="translate(-822.78 -220.19)"/><path class="cls-1" d="M834.83,457.36c-.78,7.26-2,14.46-3.24,21.68,0-3.12-.42-6.22.84-9.31a4,4,0,0,0-.52-4.31c-.84-1,.34-1.83.22-3.13.38.7.59,1.06,1,1.84,1.32-3.37-.57-6.5.8-9.48C834.67,455.46,833.67,456.69,834.83,457.36Z" transform="translate(-822.78 -220.19)"/><path class="cls-1" d="M1134.07,416.91q-3.25-7.64-6.5-15.28c2.16.68,2,2.64,3,3.95.61.79.84,1.54,2.22,1.45s1.3.77,1.31,1.54c0,1.5-.88.17-1.32.28s-.8.32-.8.74c0,1,.32.39.73.14.24-.14.35.25.3.44C1132.34,412.53,1134.49,414.58,1134.07,416.91Z" transform="translate(-822.78 -220.19)"/><path class="cls-1" d="M1070.28,313.72c-4.07-4.15-8.19-8.27-11.91-12.66,2.33,1.2,4.5,2.53,5.55,4.75.27.58.95.46,1.35.46,1.33,0,1.78.77,2.36,1.49a2.75,2.75,0,0,0,1.3,3.1A2.38,2.38,0,0,1,1070.28,313.72Z" transform="translate(-822.78 -220.19)"/><path class="cls-1" d="M1150.25,469.92a17.13,17.13,0,0,1-1.23-5.41c-.61-4.42-2.26-8.66-3.09-13,1.65.86,1.86,2.2,2.36,3.68.78,2.31.74,4.71,1.67,7S1150.24,467.33,1150.25,469.92Z" transform="translate(-822.78 -220.19)"/><path class="cls-1" d="M866.16,638.21a113.35,113.35,0,0,1,8.67,13c-.77.46-1.26-1.38-2.32-.12-.4.48-1.16-.36-.92-.85,1-2.13-.39-3.43-2.17-4.58s-.86-3.23-2.28-4.54C866.28,640.35,865.36,639.45,866.16,638.21Z" transform="translate(-822.78 -220.19)"/><path class="cls-1" d="M1007.66,816.54c-.82-.58-.52-1.37-.53-2.08,0-3.63,0-7.26,0-10.88,0-.78.35-1.65-.52-2.31a1.7,1.7,0,0,1-.51-1.78,8.86,8.86,0,0,0-.05-5.1,6.75,6.75,0,0,1,0-3.16c.59-3.22.13-6.52,1.07-9.71.93.74.52,1.69.52,2.54Q1007.69,800.31,1007.66,816.54Z" transform="translate(-822.78 -220.19)"/><path class="cls-1" d="M1017.4,744.69v-.43c.46-.73,1.41-.92,2.15-1.35l8.6-5.43c.72-.24,1.18-.83,1.95-1l.28.15c-1.25,1.65-2,3.76-5.21,3.9.4.86,1.64,1.8.32,2.82-.07-.62-.51-1.81-.84-1.42-.69.81-2.3-.91-2.6,1.06C1021.85,744.29,1019.34,744.78,1017.4,744.69Z" transform="translate(-822.78 -220.19)"/><path class="cls-1" d="M874.81,651.23q5.38,7.2,10.76,14.42c-1.14-.46-2.75-.42-2.54-2.14.06-.54-1.1-.54-1.8-.55a14.21,14.21,0,0,0-2.91-5.4c-1.06-1.24-1.69-2.73-3.16-3.77C874.3,653.17,874.82,652.1,874.81,651.23Z" transform="translate(-822.78 -220.19)"/><path class="cls-1" d="M990.91,226.46c.46-.85-1-1.35-.55-2.21-.4-.44-.5-.88,0-1.33l.06,0c2.73,1.05,3.94,2.75,3.36,5.27,0,.2,0,.58.09.61,3.31,1,1.53,3.29,1.86,5-1.66-.39-1.66-1.84-2.53-2.73C992.41,229.53,990.7,228.32,990.91,226.46Z" transform="translate(-822.78 -220.19)"/><path class="cls-1" d="M866.17,367.52c.1,1.3-1.33,2.23-1.27,3.52l-2,2.79c-.48-.36.78-1.23-1.26-1.43-2.22-.22-.47-2.83-.93-4.34-.19-.63-.07-1.52,1.1-1.39s1.77.78.76,1.68-1,1.51,0,2.36A5.5,5.5,0,0,1,866.17,367.52Z" transform="translate(-822.78 -220.19)"/><path class="cls-1" d="M918.08,701.49c2,.86,2.82,2.67,4.54,3.73a40,40,0,0,1,4,3.54h0c.85.54,1.85,1,2.09,2,.43.52,1.08.95,1.16,1.64l-1.83-.13-1-.06c.42-2.49-2.66-2.8-3.72-4.22-1.35-1.81-3.31-3-4.82-4.58A1.93,1.93,0,0,1,918.08,701.49Z" transform="translate(-822.78 -220.19)"/><path class="cls-1" d="M1121,639.56a37.15,37.15,0,0,1,4.35-7.65c-1.51,3.08,1.12,6.64-1.73,9.73C1122.9,640.78,1123.82,638.35,1121,639.56Z" transform="translate(-822.78 -220.19)"/><path class="cls-1" d="M1093.88,685.44c2.53-2.94,2.23-6.6,5.2-8.89C1100.26,679.41,1097.16,685.13,1093.88,685.44Z" transform="translate(-822.78 -220.19)"/><path class="cls-1" d="M1038.91,730.27c2.54-2.58,5.69-4.61,8.69-6.78.08,1.55.65,3.35-2.45,3.29a.87.87,0,0,0-.88.74C1044,730.46,1041,729.79,1038.91,730.27Z" transform="translate(-822.78 -220.19)"/><path class="cls-1" d="M989.29,809.36a16.38,16.38,0,0,0,.53,7.19c.51.39,1.25.43,1.75.82a.49.49,0,0,1-.12.52c-2.32,0-3.33-.9-3.28-2.93.12-5.46,0-10.93,0-16.39l.45-.1a1.37,1.37,0,0,1,.58.59c.61,2.27,0,4.58.28,6.86C989.45,807.06,989.83,808.23,989.29,809.36Z" transform="translate(-822.78 -220.19)"/><path class="cls-1" d="M1032.45,734.77a26.63,26.63,0,0,1,6.48-4.52c0,2.4-.13,2.49-2.7,3a7.12,7.12,0,0,0,1,1.5c.66.59.19.87-.23,1.27s-1,.37-1.54,0A4.52,4.52,0,0,0,1032.45,734.77Z" transform="translate(-822.78 -220.19)"/><path class="cls-1" d="M1145.94,451.5l-3.12-9.91c1.44.26.38,2.14,2.08,2.23-.6,1.57.94,2.74,1.13,4.17.11.83.7.67,1.31.3s.84-1,1.54-.57.32.94.3,1.45c0,.79-.68,1-1.46.93C1146.49,450,1145.88,450.46,1145.94,451.5Z" transform="translate(-822.78 -220.19)"/><path class="cls-1" d="M833.75,557.82A108.21,108.21,0,0,1,837,571.33a2.77,2.77,0,0,1-2.06-2.71C835.32,564.93,832.64,561.51,833.75,557.82Z" transform="translate(-822.78 -220.19)"/><path class="cls-1" d="M1159.29,500.35c.88,1.89,1,11.86,0,14.11Z" transform="translate(-822.78 -220.19)"/><path class="cls-1" d="M1087.55,334.32a5,5,0,0,1-2.14-2.73c1-.09,1.46-.78,2-1.32.36-.34,0-1.26.94-1.08a7.43,7.43,0,0,1,2.29,1c.2.11.27.76.16.81-1.39.64-1.79,1.46-1.27,2.77.1.25-.8-.3-1.29-.26S1087.68,334,1087.55,334.32Z" transform="translate(-822.78 -220.19)"/><path class="cls-1" d="M1013.15,259.65c1.67,0,2.75.46,3.27,2a5.61,5.61,0,0,0,3.33,3c1.88.72,2.12,1.71,2,3.08l-.33.17c-3.68-2.07-6.76-4.59-8.57-8Z" transform="translate(-822.78 -220.19)"/><path class="cls-1" d="M983.9,767.13c1.15,2.88,1.28,5.92,2.12,8.85.27.93.38,1.89.57,2.84a5,5,0,0,1,.29,2.87l-.3.28a5.07,5.07,0,0,1-1.64-4.44C985.25,774,983.12,770.68,983.9,767.13Z" transform="translate(-822.78 -220.19)"/><path class="cls-1" d="M851,609.93a10.59,10.59,0,0,1,2.14,4.52c-.58,0-.92.41-1.37.63-.88.43-2.24.62-2.63-.12s-1.26-1.91.51-2.77A2.31,2.31,0,0,0,851,609.93Z" transform="translate(-822.78 -220.19)"/><path class="cls-1" d="M1089.69,683.54a68.82,68.82,0,0,1,6.57-8c-.13,3.55-2.48,6.07-5.63,8.18C1090.48,683.81,1090,683.6,1089.69,683.54Z" transform="translate(-822.78 -220.19)"/><path class="cls-1" d="M836.85,450.09c-1.31,2.3-.65,5-2,7.26-.35-3.91.76-7.63,2-11.35a2.38,2.38,0,0,0-.26-1.94c-.78-1.47.08-1.53,1.44-1.14C838,445.35,836.71,447.64,836.85,450.09Z" transform="translate(-822.78 -220.19)"/><path class="cls-1" d="M1116.76,646.77a44.29,44.29,0,0,1,4.29-7.22c1.18,1.2,1.36,2.42.07,3.66a5.29,5.29,0,0,0-1.61,2.29A2.33,2.33,0,0,1,1116.76,646.77Z" transform="translate(-822.78 -220.19)"/><path class="cls-1" d="M1000.1,820.13c1.72.06,3.39-.1,5.07.74,1.21.6,2.65.25,2.5-1.46-.08-.95,0-1.91,0-2.87,1.1,1.09,2.73,2.15,1.61,3.74-1.27,1.8-3.39,2.18-5.56,1.17C1002.54,820.91,1000.67,821.71,1000.1,820.13Z" transform="translate(-822.78 -220.19)"/><path class="cls-1" d="M891,328a19.27,19.27,0,0,1-3.22,4.54c-.16-1.2.38-2.56-1.57-3.24-.84-.3-.81-1.19.17-1.21,2.1,0,1.89-1.19,2.06-2.37C888.6,327.07,889.66,327.64,891,328Z" transform="translate(-822.78 -220.19)"/><path class="cls-1" d="M1146,579.48c.58,3.06-1.37,5.88-1.21,8.92.05.94-1,1.51-2,1.88l-.31-.2c-.71-1.79,0-3.41.88-5,1.06-1.75.26-3.91,1.76-5.57a.76.76,0,0,1,.77-.1Z" transform="translate(-822.78 -220.19)"/><path class="cls-1" d="M1007.71,252.48c1.4.87,3.2,1.44,3.4,3.22,1.09-.39.57-1.47,1.47-2.18,1.36,2-.94,4.26.57,6.13l-.08.06c-.78.2-1.17-.29-1.51-.68-1.49-1.73-2.73-3.6-4-5.42a.79.79,0,0,1,.07-1Z" transform="translate(-822.78 -220.19)"/><path class="cls-3" d="M942.71,723.14c-1.48-2.08-3.94-3.41-5.83-5.17-.64-.6-1.61-1-1.75-1.91,1.53,0,2.78.6,3,1.71s1.17.27,1.75.61c2.24,1.31,2.84,3.22,3.47,5.18Z" transform="translate(-822.78 -220.19)"/><path class="cls-1" d="M842.71,599.51a3.9,3.9,0,0,1,0,6.73c-.78.41,0,1.36-1.16,1.76-.43-.94-.66-1.81.34-2.57,2-1.52,2.06-3.14.58-4.92-.13-.16-.08-.44,0-.65S842.62,599.62,842.71,599.51Z" transform="translate(-822.78 -220.19)"/><path class="cls-1" d="M857.41,385.43a28.29,28.29,0,0,1-3.16,7.24,8.88,8.88,0,0,0-.58-3.63h0c1.62-1.18-1.64-2.14-.16-3.33.52-.13.69.25.91.55.87,1.19,1.59,1.52,2-.21C856.55,385.62,857,385.51,857.41,385.43Z" transform="translate(-822.78 -220.19)"/><path class="cls-1" d="M967.68,741.59a66.75,66.75,0,0,1,8.71,5.27.32.32,0,0,1,.14.41l-.24.14c-1.34-.34-2.34-1.25-3.93-1.33-1.06-.05-.43-1.92-2-2-.24.29.37,2-1,.61C968.46,743.88,967.45,742.88,967.68,741.59Z" transform="translate(-822.78 -220.19)"/><path class="cls-15" d="M1007.12,781.52c0,2.59,0,5.19,0,7.79,0,.71.29,1.51-.53,2.09-1.5-2.4-1-4.79,0-7.19a88.39,88.39,0,0,1,.57-12.49,3,3,0,0,1,.5-1c0,2.09,0,4.19,0,6.28-.74,1.14.17,2.45-.54,3.6Z" transform="translate(-822.78 -220.19)"/><path class="cls-1" d="M889.9,671c1.69,1.66,3.42,3.31,4.32,5.42-.52.43-1.21-1.29-1.66.08-.07.18-.36.46-.41.28-.51-1.92-4.5-2.88-2.27-5.56C889.92,671.18,889.9,671.09,889.9,671Z" transform="translate(-822.78 -220.19)"/><path class="cls-1" d="M1139.49,421.59c-1.7-1.62-1.23-6.34.48-7.2a1.59,1.59,0,0,1,1.23,0c.61.35.42.87.13,1.38C1139.48,419.07,1139.49,419.07,1139.49,421.59Z" transform="translate(-822.78 -220.19)"/><path class="cls-1" d="M884.47,671.05c0-.57.1-1.16-.38-1.67-1.58-1.72-.27-1.93,1.46-1.93h0c1.19,1.2.44,3.06,2,4.15.14.1.06.64-.12.8-.45.4-.73-.06-1.07-.25C885.73,671.79,885.41,671.05,884.47,671.05Z" transform="translate(-822.78 -220.19)"/><path class="cls-1" d="M1078.94,323.52a25.69,25.69,0,0,1-5.39-6.31c1.87-.12,2.94.53,3.31,2.13.2.84.18,1.78,2,1.88C1080.1,321.29,1078.6,322.71,1078.94,323.52Z" transform="translate(-822.78 -220.19)"/><path class="cls-1" d="M976.27,751.85c-2,.09-4.59-2.05-4.25-3.52.11-.47.29-.85,1-.88.47,0,1.11.12,1,.49-.38,1.77,1.46,2.06,2.57,2.85.24.17.51.45.51.69S976.62,751.84,976.27,751.85Z" transform="translate(-822.78 -220.19)"/><path class="cls-1" d="M853.16,614.44a55.21,55.21,0,0,1,4.2,8.11c-1.14,0-1.89,0-2.13-1.33C854.78,618.93,852.34,617,853.16,614.44Z" transform="translate(-822.78 -220.19)"/><path class="cls-1" d="M1157.59,522.28v9.58h-.54v-9.57Z" transform="translate(-822.78 -220.19)"/><path class="cls-1" d="M824.24,543.2V534h.45v9.24Z" transform="translate(-822.78 -220.19)"/><path class="cls-1" d="M952.61,730.63l3.66,2.42a3.15,3.15,0,0,1,1.82,1.54l-.2.27c-.73-.06-1,.56-1.57.72a3.55,3.55,0,0,1-1,0C955.78,733.42,951.71,733,952.61,730.63Z" transform="translate(-822.78 -220.19)"/><path class="cls-1" d="M1131.17,401.51c-.73-1.75.29-3.59-1.25-5-.32-.29-.12-.89.52-1.06s1.47,0,1.38.6C1131.59,397.82,1133.91,399.71,1131.17,401.51Z" transform="translate(-822.78 -220.19)"/><path class="cls-1" d="M913.64,697.18a15,15,0,0,1,4.45,4.31c-1.59,0-3.53.72-3.43-1.74.05-1-1.36-.6-2.09-.86Z" transform="translate(-822.78 -220.19)"/><path class="cls-1" d="M1121,643.18c1.31.16,3,.3,3,1.23a19.21,19.21,0,0,1-1,3.8c-.14.46-.93.44-1.41.19a.73.73,0,0,1-.27-1.19C1122.93,645.78,1122.11,644.51,1121,643.18Z" transform="translate(-822.78 -220.19)"/><path class="cls-1" d="M904,687.15a36,36,0,0,1,5.31,5.46,2.49,2.49,0,0,1-3-1.06c-.69-.89-.6-2.17-2.5-2.41C903.12,689,904.18,687.86,904,687.15Z" transform="translate(-822.78 -220.19)"/><path class="cls-16" d="M987.14,787.79c0-1.2,0-2.4,0-3.59l.39-.06c.89,2.05,3.57,3.6,2.45,6.21-.24.56-.38,1.15-1.21,1.33a1.88,1.88,0,0,1-.82-.1C986.71,790.45,988,789,987.14,787.79Z" transform="translate(-822.78 -220.19)"/><path class="cls-1" d="M860.77,378.31a32.72,32.72,0,0,1-3.34,7.09,18.16,18.16,0,0,1,.1-3.54c.15-.7-.18-1.75,1.44-2,1.22-.2.3-1,.11-1.6h0Z" transform="translate(-822.78 -220.19)"/><path class="cls-1" d="M834.3,446.26c-2-5.56-2-5.56-1-7.54C833.05,441.15,835.58,443.22,834.3,446.26Z" transform="translate(-822.78 -220.19)"/><path class="cls-1" d="M1158.67,481.43v7c-2.21-2.57-.45-4.78-.67-7Z" transform="translate(-822.78 -220.19)"/><path class="cls-1" d="M962.59,742.14c2.23-.11,4.08.13,4.73,2.2C964.75,744.91,964.31,744.72,962.59,742.14Z" transform="translate(-822.78 -220.19)"/><path class="cls-1" d="M900.68,683.62a9.58,9.58,0,0,1,3.32,3.54l-3.22,1.18C900.55,686.67,901.26,685.12,900.68,683.62Z" transform="translate(-822.78 -220.19)"/><path class="cls-1" d="M858,366.88c1,1.6,0,3.53,1.52,5,.31.29-.15.86-.81.91s-1.22-.27-1.2-.91C857.54,370.24,857.19,368.54,858,366.88Z" transform="translate(-822.78 -220.19)"/><path class="cls-1" d="M1141.66,421.37c.1,1-.31,2,.73,2.93.51.44.56,1.16-.36,1.43s-1.52-.11-1.39-.84c.24-1.35-1.58-2.17-1.15-3.52Z" transform="translate(-822.78 -220.19)"/><path class="cls-1" d="M840.12,434.4a40.25,40.25,0,0,1-2.13,8.5c-.12-1.54-.55-3.35-.08-4.56S838.16,435.19,840.12,434.4Z" transform="translate(-822.78 -220.19)"/><path class="cls-1" d="M854.27,392.66a46.88,46.88,0,0,1-3.23,8.12A9.42,9.42,0,0,1,854.27,392.66Z" transform="translate(-822.78 -220.19)"/><path class="cls-1" d="M824.85,493.55v6.54h-.54v-6.55Z" transform="translate(-822.78 -220.19)"/><path class="cls-1" d="M848.88,605.42a9.59,9.59,0,0,1,2.16,4.52,7,7,0,0,0-5.32-2.08C847.23,607.32,849.66,607.72,848.88,605.42Z" transform="translate(-822.78 -220.19)"/><path class="cls-17" d="M957.9,260.51c0,.18.05.37.08.55-1.43,1.44-3.5,2.38-4.44,4.22-.67,1.32-1.06-.32-1.67-.25A23.18,23.18,0,0,1,957.9,260.51Z" transform="translate(-822.78 -220.19)"/><path class="cls-1" d="M1095.9,339.67c-1.13-1-.22-2.48-1.76-3a1,1,0,0,1,.75-1.41c.91-.18,1.37.23,1.35,1A7.73,7.73,0,0,1,1095.9,339.67Z" transform="translate(-822.78 -220.19)"/><path class="cls-1" d="M832.9,455.42c-.78-2.18.55-4.1-1.16-5.64a.46.46,0,0,1,.17-.78.92.92,0,0,1,1.08.45C834.31,451.32,833.57,453.16,832.9,455.42Z" transform="translate(-822.78 -220.19)"/><path class="cls-1" d="M1019.35,258.35a.7.7,0,0,1-.92.62,4.25,4.25,0,0,1-2.41-.83c-.47-.49-1.1-1-.62-1.54.7-.8,1.16.1,1.67.38C1017.85,257.43,1018.6,257.9,1019.35,258.35Z" transform="translate(-822.78 -220.19)"/><path class="cls-1" d="M961.77,737.45a18.8,18.8,0,0,1,5,3.6C963.61,741.27,962.62,739.43,961.77,737.45Z" transform="translate(-822.78 -220.19)"/><path class="cls-1" d="M1008.73,766.24c0-2.43-.09-4.87,1.09-7.18,0,1.84,0,3.67,0,5.5C1009.81,765.27,1010,766.11,1008.73,766.24Z" transform="translate(-822.78 -220.19)"/><path class="cls-1" d="M1021.77,267.73c1-.83,2.15-.14,2.85.16,1.18.5,0,1.69.37,2.54l-.27.23a3.38,3.38,0,0,1-3.05-2.84Z" transform="translate(-822.78 -220.19)"/><path class="cls-1" d="M1151.32,477.21a24.56,24.56,0,0,1-1.11-7.29c1.36,0,1.16.88,1.16,1.59C1151.37,473.41,1151.34,475.31,1151.32,477.21Z" transform="translate(-822.78 -220.19)"/><path class="cls-1" d="M1013.06,751.88a11.12,11.12,0,0,1,4.32-6.3C1016.62,748,1014.81,749.93,1013.06,751.88Z" transform="translate(-822.78 -220.19)"/><path class="cls-17" d="M951.38,265.37c.15,1.61-1.59,2.3-2.64,3.12a6.67,6.67,0,0,1-2.83,1.51A23.23,23.23,0,0,1,951.38,265.37Z" transform="translate(-822.78 -220.19)"/><path class="cls-1" d="M1155.68,546.24c0,1.18,0,2.37,0,3.56,0,.31-.12.63-.53.67a1.11,1.11,0,0,1-.66-.25c.34-1.35-.6-2.91.43-4.16Z" transform="translate(-822.78 -220.19)"/><path class="cls-1" d="M1154.64,491.83c.1-.4-.25-1.34,1.07-1.17,1,.13,1.07.86,1.06,1.56s-.57,1-1.39,1C1154.12,493.24,1154.52,492.56,1154.64,491.83Z" transform="translate(-822.78 -220.19)"/><path class="cls-1" d="M947.15,726.71c2.17.7,3.41,2.32,5,3.56C948.75,730.8,948.74,728,947.15,726.71Z" transform="translate(-822.78 -220.19)"/><path class="cls-1" d="M987.14,787.79c1.28,1-.2,2.59,1.06,3.61a2.47,2.47,0,0,1,0,3.59c-1.3-.16-1.06-1-1.07-1.7C987.12,791.46,987.13,789.62,987.14,787.79Z" transform="translate(-822.78 -220.19)"/><path class="cls-1" d="M1127.58,401.64c-.73-1.49-1.77-2.89-2.1-4.52,2.81-.26,2.23,1.64,2.4,2.84A6.71,6.71,0,0,1,1127.58,401.64Z" transform="translate(-822.78 -220.19)"/><path class="cls-1" d="M909.31,692.63c1.28,1.07,2.71,2,3.28,3.56C909.62,696.2,909.35,694.49,909.31,692.63Z" transform="translate(-822.78 -220.19)"/><path class="cls-1" d="M935.64,720.12a7.68,7.68,0,0,0,2.76,2.4c-.68.89-1.62.53-2.4.59C935.93,722.19,934.79,721.42,935.64,720.12Z" transform="translate(-822.78 -220.19)"/><path class="cls-1" d="M1136.33,615c1.69-.07,1.5-1.54,2.63-2.16a1.45,1.45,0,0,1,.21,2.21C1138.49,615.67,1137.4,615.44,1136.33,615Z" transform="translate(-822.78 -220.19)"/><path class="cls-1" d="M827.41,540.37c.81.84,1.58,1.78,1.13,2.76-.29.64-1.34.46-2.28.06A4,4,0,0,0,827.41,540.37Z" transform="translate(-822.78 -220.19)"/><path class="cls-1" d="M1090.33,685.87c1.45,1,2.56-.06,3.78-.45.35,2-1.32,1.79-2.84,1.8C1089.91,687.23,1089.76,686.74,1090.33,685.87Z" transform="translate(-822.78 -220.19)"/><path class="cls-1" d="M1011.94,251.72c0,.7-.49,1.16-1.45,1.22-.71,0-.94-.24-.75-.81s0-1.26,1-1.35C1011.45,250.72,1011.92,251,1011.94,251.72Z" transform="translate(-822.78 -220.19)"/><path class="cls-1" d="M1132.93,399.82c1.57,1.36,1.21,2.76.25,4.21C1133.1,402.62,1133,401.22,1132.93,399.82Z" transform="translate(-822.78 -220.19)"/><path class="cls-1" d="M980.64,755.47v.9c-2.21-.82-1.08-2.85-2.12-4.11-.24-.3,0-.87,0-1.31.86-.17,1,.41,1.2.84a.41.41,0,0,1-.13.53.85.85,0,0,0,.49.91C980.78,753.89,980,754.81,980.64,755.47Z" transform="translate(-822.78 -220.19)"/><path class="cls-1" d="M863,373.82a11.73,11.73,0,0,1-2.2,4.5C860.75,376.57,860.37,374.69,863,373.82Z" transform="translate(-822.78 -220.19)"/><path class="cls-1" d="M900.59,683.2a.53.53,0,0,1,.09.42c-2.94-.26-3.29-.67-3.19-3.66.62.11.83.53,1,.94A17.68,17.68,0,0,0,900.59,683.2Z" transform="translate(-822.78 -220.19)"/><path class="cls-1" d="M1143.85,593.55c.91-1,1.45-1.86,2.79-1.34a.65.65,0,0,1,.3,1C1146.21,594.2,1145.19,593.79,1143.85,593.55Z" transform="translate(-822.78 -220.19)"/><path class="cls-18" d="M988.24,223.83c0,2.12.31,4.29-1.1,6.24l0-3.95c1-.62.36-1.51.59-2.25C987.9,223.66,988.06,223.66,988.24,223.83Z" transform="translate(-822.78 -220.19)"/><path class="cls-1" d="M1085.43,331.6a13.91,13.91,0,0,1-3.07-3.64C1085.11,328.17,1085.18,329.94,1085.43,331.6Z" transform="translate(-822.78 -220.19)"/><path class="cls-1" d="M842.62,411.63a4.25,4.25,0,0,1,.62.29c-.24.92,1.74,1.78.1,2.7a1.11,1.11,0,0,1-.65.12A3.41,3.41,0,0,1,842.62,411.63Z" transform="translate(-822.78 -220.19)"/><path class="cls-1" d="M822.78,528.39c1.41.13,2-1.21,3.11-.64.42.22.32.86-.1,1.19C824.87,529.64,823.94,529.68,822.78,528.39Z" transform="translate(-822.78 -220.19)"/><path class="cls-1" d="M959,734.94c.74,1,2.25,1.4,2.83,2.52-1.73-.42-3.86-.42-3.9-2.6l.08-.06C958.35,734.57,958.71,734.5,959,734.94Z" transform="translate(-822.78 -220.19)"/><path class="cls-1" d="M1030.29,736.08a4,4,0,0,1,2.18-1.33c-.27.93.8,1.55,1,2.69-1.1-.51-2-1.05-3-.81l0,0C1030.06,736.46,1030,736.28,1030.29,736.08Z" transform="translate(-822.78 -220.19)"/><path class="cls-1" d="M827.14,479.67c.08.73-.5,1.05-1.21,1.2s-.85-.32-.87-.77c0-.62.06-1.2,1.05-1.2C826.73,478.89,827.09,479.14,827.14,479.67Z" transform="translate(-822.78 -220.19)"/><path class="cls-1" d="M944.13,729.12a1.63,1.63,0,0,1,.1-1.64c.25-.59-1.18-1.15-.11-1.71.51-.28.7.27.89.57.47.75,1.26,1.54-.21,2.19A2.92,2.92,0,0,0,944.13,729.12Z" transform="translate(-822.78 -220.19)"/><path class="cls-1" d="M1155,482.13c-.09-.12-.27-.26-.25-.37.15-.93-.72-1.83-.09-2.75a1,1,0,0,1,.71.08C1156,480.12,1155.64,481.13,1155,482.13Z" transform="translate(-822.78 -220.19)"/><path class="cls-1" d="M1158.49,546.34c-.75-1.15-.82-2.29,0-4.05A5,5,0,0,1,1158.49,546.34Z" transform="translate(-822.78 -220.19)"/><path class="cls-1" d="M1097,342.37c3.67-.11,2.08,1.53,1.8,2.91Z" transform="translate(-822.78 -220.19)"/><path class="cls-1" d="M1154.58,535.87c1.93,2,.78,3.27-.24,4.54A16.59,16.59,0,0,0,1154.58,535.87Z" transform="translate(-822.78 -220.19)"/><path class="cls-1" d="M857.34,631.91c3,.78,1.06,2,.84,3.26C857,634.08,857.69,633,857.34,631.91Z" transform="translate(-822.78 -220.19)"/><path class="cls-1" d="M1072.85,312.58c.38-.48-2.16-1.08-.67-2.17.22-.16.85-.28,1-.17C1074.24,311.26,1072.71,312.14,1072.85,312.58Z" transform="translate(-822.78 -220.19)"/><path class="cls-1" d="M1033.68,271.42c.73,0,1.15.43,1.16,1s-.66.75-1.3.74-1-.27-1-.8S1032.94,271.42,1033.68,271.42Z" transform="translate(-822.78 -220.19)"/><path class="cls-1" d="M1106.08,349.57c.66,0,.93.36,1,.87,0,.76-.72,1.13-1.34,1.18s-.7-.65-.73-1.1C1104.91,349.9,1105.28,349.54,1106.08,349.57Z" transform="translate(-822.78 -220.19)"/><path class="cls-1" d="M1037.86,275.12c-.06.54-.47.73-1.07.71-.81,0-1-.45-1-1s.31-1,1.14-.84C1037.61,274.12,1038,274.51,1037.86,275.12Z" transform="translate(-822.78 -220.19)"/><path class="cls-1" d="M1068.13,706.45c.75,2.12-.49,2.61-2.71,2.3A3.28,3.28,0,0,1,1068.13,706.45Z" transform="translate(-822.78 -220.19)"/><path class="cls-1" d="M850,387c-.21,1.32.22,2.45-.65,3.49C849,389.38,848.11,388.22,850,387Z" transform="translate(-822.78 -220.19)"/><path class="cls-1" d="M1086.6,691.71c0-.52.3-.83,1-.85s1.14.33,1.09,1-.47.75-1.08.73S1086.61,692.24,1086.6,691.71Z" transform="translate(-822.78 -220.19)"/><path class="cls-1" d="M1022.29,744.68a3.75,3.75,0,0,1,3.2-1.3c.14,0,.43.63.31.78C1025,745.19,1023.78,744.53,1022.29,744.68Z" transform="translate(-822.78 -220.19)"/><path class="cls-1" d="M836.79,439.16a5.5,5.5,0,0,1-.61-.67c-.41-.85-.82-2,.11-2.48s1,.27.78.92a5.71,5.71,0,0,0-.14,1.11C836.89,438.32,836.86,438.61,836.79,439.16Z" transform="translate(-822.78 -220.19)"/><path class="cls-12" d="M988.2,795V791.4h.55a1.85,1.85,0,0,1,.68,1.11c0,2,.78,4.15-.68,6.08h-.54C988.21,797.38,988.21,796.18,988.2,795Z" transform="translate(-822.78 -220.19)"/><path class="cls-1" d="M833.46,567.27c-.45-.43-.68-.56-.65-.64.24-.91-1.35-1.42-.73-2.37a1,1,0,0,1,.7-.17A3,3,0,0,1,833.46,567.27Z" transform="translate(-822.78 -220.19)"/><path class="cls-1" d="M1079.08,317.15c-.6,0-1.1-.12-1.07-.73a1,1,0,0,1,1-.92c.68-.1,1,.22,1,.76S1079.76,317.11,1079.08,317.15Z" transform="translate(-822.78 -220.19)"/><path class="cls-1" d="M1124.87,377.92a4.77,4.77,0,0,1,.35,3.74C1123.94,380.59,1124.29,379.57,1124.87,377.92Z" transform="translate(-822.78 -220.19)"/><path class="cls-19" d="M918.05,295.67a8.1,8.1,0,0,1-3.35,3.47C915.57,297.82,915.84,296.09,918.05,295.67Z" transform="translate(-822.78 -220.19)"/><path class="cls-1" d="M1020.58,262.45c.77,0,1.11.34,1.07.94a.58.58,0,0,1-.8.6c-.58-.13-1.23-.32-1.19-1C1019.69,262.62,1020.09,262.44,1020.58,262.45Z" transform="translate(-822.78 -220.19)"/><path class="cls-20" d="M936.89,277.68c-.64,1.67-2.26,2.6-3.86,3.55A9.37,9.37,0,0,1,936.89,277.68Z" transform="translate(-822.78 -220.19)"/><path class="cls-1" d="M903.35,690.48c.74.57.83,1.47,1.84,1.86C902.68,692.55,902.68,692.55,903.35,690.48Z" transform="translate(-822.78 -220.19)"/><path class="cls-1" d="M1131.61,629.11c.06.57-.42.59-.86.61-.64,0-1.36,0-1.45-.67-.06-.48.54-.83,1-.86C1130.92,628.14,1131.19,628.77,1131.61,629.11Z" transform="translate(-822.78 -220.19)"/><path class="cls-1" d="M1073.55,317.22a7.19,7.19,0,0,1-2.64-2.73C1073,314.62,1073.69,315.63,1073.55,317.22Z" transform="translate(-822.78 -220.19)"/><path class="cls-1" d="M978.47,750.53c-1.19-.82-2.37-1.64-2.18-3.12l0,0c1.43-.06,1.73,1,2.44,1.67a1.46,1.46,0,0,1,.13.94A1.13,1.13,0,0,1,978.47,750.53Z" transform="translate(-822.78 -220.19)"/><path class="cls-1" d="M1142.67,440.78a5.63,5.63,0,0,1-1.08-3.22C1143.4,438.3,1143.36,439.47,1142.67,440.78Z" transform="translate(-822.78 -220.19)"/><path class="cls-1" d="M1081.09,326.22a5,5,0,0,1-2.17-2.72C1080.64,323.86,1081.7,324.59,1081.09,326.22Z" transform="translate(-822.78 -220.19)"/><path class="cls-1" d="M840.22,582.53a5.16,5.16,0,0,1,1.12,3.12c-.42-.12-.82,1.23-1.11.11A12,12,0,0,1,840.22,582.53Z" transform="translate(-822.78 -220.19)"/><path class="cls-1" d="M945.39,730.28c1.49-1.4,1.49-1.4,3.1-1A3.86,3.86,0,0,1,945.39,730.28Z" transform="translate(-822.78 -220.19)"/><path class="cls-1" d="M887.73,668.33a6.64,6.64,0,0,1,2.18,2.7C888.09,670.74,887.38,669.84,887.73,668.33Z" transform="translate(-822.78 -220.19)"/><path class="cls-21" d="M993.59,231l2.1,2.79c.09.27.18.53.26.79l-.16,0-.14-.08C993.68,234.15,993.06,233.08,993.59,231Z" transform="translate(-822.78 -220.19)"/><path class="cls-1" d="M970.19,749.46c.65,1,.65,1,.34,2.27C969.4,751,970,750.2,970.19,749.46Z" transform="translate(-822.78 -220.19)"/><path class="cls-22" d="M973,249.64c-.3,1.47-1.3,2.2-3.14,2Z" transform="translate(-822.78 -220.19)"/><path class="cls-1" d="M1063.6,301.3c-.15.58-.53.58-.87.57-.8,0-1-.43-1-1,0-.34.31-.61.65-.44A6.71,6.71,0,0,1,1063.6,301.3Z" transform="translate(-822.78 -220.19)"/><path class="cls-1" d="M1082.22,322.88c0,.36,0,.81-.65.7-.51-.09-1.2-.27-1.1-.76a1.54,1.54,0,0,1,1.09-.87C1082.36,321.84,1082.14,322.49,1082.22,322.88Z" transform="translate(-822.78 -220.19)"/><path class="cls-1" d="M1063.81,715.08c0,.66-.52.88-1.25.81-.42,0-.73-.29-.5-.56s.6-1,1.31-.94C1063.81,714.41,1063.79,714.79,1063.81,715.08Z" transform="translate(-822.78 -220.19)"/><path class="cls-1" d="M864.75,364.59a5.46,5.46,0,0,1-1.36.79c-.41.12-.47-.34-.47-.62,0-.67.51-.86,1.22-.83C864.55,364,864.77,364.12,864.75,364.59Z" transform="translate(-822.78 -220.19)"/><path class="cls-1" d="M1121,378.31c.75,0,1.18.24,1.17.88,0,.29-.14.74-.52.6a3,3,0,0,1-1.29-1C1120.16,378.55,1120.6,378.33,1121,378.31Z" transform="translate(-822.78 -220.19)"/><path class="cls-1" d="M1124.37,385.45c-.19,1-.59,1.91-2.17,1.79C1121.56,385.51,1123.69,386.08,1124.37,385.45Z" transform="translate(-822.78 -220.19)"/><path class="cls-1" d="M1144.86,443.75c.36-.95,1.39-.89,2-1.36C1147.47,444.2,1146.49,444.32,1144.86,443.75Z" transform="translate(-822.78 -220.19)"/><path class="cls-23" d="M1068.13,706.45l-2.71,2.3-.53,0c.61-1.39,2-2.22,3.28-3.11l.12.46A.59.59,0,0,0,1068.13,706.45Z" transform="translate(-822.78 -220.19)"/><path class="cls-1" d="M1142.82,590.28c-.56,1.15.89,2.73-1.12,3.57l-.1-.08c-1-1.23-.21-2.34.35-3.46a.63.63,0,0,1,.78-.09Z" transform="translate(-822.78 -220.19)"/><path class="cls-1" d="M1142.68,607.31c0,.66-.52.87-1.24.81-.41,0-.76-.28-.54-.54a3.08,3.08,0,0,1,1.34-.91C1142.61,606.56,1142.65,607,1142.68,607.31Z" transform="translate(-822.78 -220.19)"/><path class="cls-1" d="M864.18,640.6c-.24-1.26-.4-2.08-.56-2.9C864.45,638.4,865.46,639.05,864.18,640.6Z" transform="translate(-822.78 -220.19)"/><path class="cls-1" d="M1107.68,667.18a1.63,1.63,0,0,1-.09-2.39A1.73,1.73,0,0,1,1107.68,667.18Z" transform="translate(-822.78 -220.19)"/><path class="cls-15" d="M991.45,817.89v-.45c1.66-.44,3.32-.85,4.32.9h0a1.31,1.31,0,0,1-1.62,0C993.24,818.23,992.2,818.64,991.45,817.89Z" transform="translate(-822.78 -220.19)"/><path class="cls-1" d="M930,715.72a1.84,1.84,0,0,1-2.13-.16.42.42,0,0,1,.22-.72A1.79,1.79,0,0,1,930,715.72Z" transform="translate(-822.78 -220.19)"/><path class="cls-1" d="M1009.82,757.72c1-.53.06-1.72,1.08-2.25-.46,1.18,1.08,2.77-1.08,3.59Z" transform="translate(-822.78 -220.19)"/><path class="cls-1" d="M895.27,677.44a5.54,5.54,0,0,1,2.25,2.54C895.84,679.7,895.18,678.8,895.27,677.44Z" transform="translate(-822.78 -220.19)"/><path class="cls-1" d="M851.07,400.77a4.17,4.17,0,0,1-1.12,2.78c.15-.95-.6-1.88-.06-2.84Z" transform="translate(-822.78 -220.19)"/><path class="cls-1" d="M885.56,665.65a8.22,8.22,0,0,1,2.18,2.69l-2.19-.88h0Z" transform="translate(-822.78 -220.19)"/><path class="cls-1" d="M853.67,389c-.54,0-.64,1.15-1.42.47a.7.7,0,0,1,.21-1.17c.78-.36,1.12.09,1.21.7Z" transform="translate(-822.78 -220.19)"/><path class="cls-1" d="M1098.86,335.18a1.33,1.33,0,0,1,.23,2.09C1098.22,336.67,1098.33,336.06,1098.86,335.18Z" transform="translate(-822.78 -220.19)"/><path class="cls-1" d="M884.88,331.9a1.32,1.32,0,0,1,.23-2.07C885.62,330.64,885.82,331.23,884.88,331.9Z" transform="translate(-822.78 -220.19)"/><path class="cls-1" d="M1116.44,368.29c-1.09-.69-.57-1.29-.58-2.16C1117.05,366.83,1116.86,367.44,1116.44,368.29Z" transform="translate(-822.78 -220.19)"/><path class="cls-1" d="M980.64,756.37c.56.84,1.38,1.61,1.08,2.69C979.77,758.61,981,757.27,980.64,756.37Z" transform="translate(-822.78 -220.19)"/><path class="cls-1" d="M1058.39,301.08a4.38,4.38,0,0,1-2-1.88C1058.08,299.05,1058.71,299.71,1058.39,301.08Z" transform="translate(-822.78 -220.19)"/><path class="cls-1" d="M901.47,689.09c.42,0,.72.23.61.55s-.22,1-.92.91c-.45,0-.44-.4-.44-.69S900.93,689.15,901.47,689.09Z" transform="translate(-822.78 -220.19)"/><path class="cls-1" d="M878.6,338.72c-.79-.8-.75-1.37-.14-2.1C879.25,337.24,879.2,337.84,878.6,338.72Z" transform="translate(-822.78 -220.19)"/><path class="cls-1" d="M870.65,650.35c.19.53.06.77-.37.83a.68.68,0,0,1-.88-.61c0-.35-.09-.87.53-.81C870.24,649.78,870.51,650.22,870.65,650.35Z" transform="translate(-822.78 -220.19)"/><path class="cls-1" d="M887.84,674.89a2.45,2.45,0,0,1,1.66,1.22c-.13.1-.24.26-.35.26C888.18,676.34,887.71,675.93,887.84,674.89Z" transform="translate(-822.78 -220.19)"/><path class="cls-1" d="M1090.22,689.75c-.38-.07-.66-.26-.64-.58a.81.81,0,0,1,.7-.82c.44-.06.53.3.55.6S1090.79,689.67,1090.22,689.75Z" transform="translate(-822.78 -220.19)"/><path class="cls-1" d="M994.15,818.34h1.62l1.62.9C996.32,818.93,994.7,820,994.15,818.34Z" transform="translate(-822.78 -220.19)"/><path class="cls-1" d="M858.12,630.55c-1-.61-.52-1.19-.75-2.22C858.6,629.18,858.71,629.72,858.12,630.55Z" transform="translate(-822.78 -220.19)"/><path class="cls-1" d="M859.08,378.26c-.56,0-.89,1-1.49.38a.81.81,0,0,1,.38-1.32c.84-.24.75.6,1.11.94Z" transform="translate(-822.78 -220.19)"/><path class="cls-24" d="M907.18,307.77a3.82,3.82,0,0,1-2.09,2.35C905,308.87,906.11,308.32,907.18,307.77Z" transform="translate(-822.78 -220.19)"/><path class="cls-1" d="M1104.45,671.29c.52.17.43.55.39.9a.52.52,0,0,1-.7.45c-.52-.12-.65-.44-.43-.84S1104,671.26,1104.45,671.29Z" transform="translate(-822.78 -220.19)"/><path class="cls-1" d="M1077.75,314a1.75,1.75,0,0,1-2,.2c0-.22-.09-.44,0-.46A1.84,1.84,0,0,1,1077.75,314Z" transform="translate(-822.78 -220.19)"/><path class="cls-1" d="M982.76,760.87c0,.59,0,1.18,0,1.78-1.2-.85-1.06-2-1-3.14Z" transform="translate(-822.78 -220.19)"/><path class="cls-1" d="M881.32,662.76c-.28.88.94,1.52-.14,2.34C880.48,664.33,880.56,663.65,881.32,662.76Z" transform="translate(-822.78 -220.19)"/><path class="cls-1" d="M1007.12,780.62c.23-1.2-.54-2.49.54-3.6C1007.43,778.21,1008.2,779.51,1007.12,780.62Z" transform="translate(-822.78 -220.19)"/><path class="cls-1" d="M1099,685.67c.47.06.49.36.49.65s0,.64-.5.63-.49-.35-.48-.64S1098.5,685.72,1099,685.67Z" transform="translate(-822.78 -220.19)"/><path class="cls-1" d="M866.53,355.06c.92.51.54,1.13.65,1.65a2.5,2.5,0,0,1-.49-.11C865.91,356.21,866,355.71,866.53,355.06Z" transform="translate(-822.78 -220.19)"/><path class="cls-1" d="M883.9,672.79c-.59-.75-.7-1.25.08-1.64a1.94,1.94,0,0,1,.49-.1C884.43,671.58,884.61,672.16,883.9,672.79Z" transform="translate(-822.78 -220.19)"/><path class="cls-1" d="M1090.83,691.71c0,.29,0,.63-.5.63s-.49-.36-.49-.64,0-.64.5-.63S1090.8,691.42,1090.83,691.71Z" transform="translate(-822.78 -220.19)"/><path class="cls-1" d="M875,340.6c1.08.6.69,1.22.81,1.74a2.61,2.61,0,0,1-.5-.11C874.48,341.85,874.83,341.33,875,340.6Z" transform="translate(-822.78 -220.19)"/><path class="cls-1" d="M1090.56,694c-.06.39-.44.4-.78.4s-.76,0-.76-.41.42-.4.77-.4S1090.5,693.55,1090.56,694Z" transform="translate(-822.78 -220.19)"/><path class="cls-1" d="M910.59,699.43c.61-.77,1.35-.45,2-.54a1.4,1.4,0,0,1-.13.41C912,699.94,911.37,699.85,910.59,699.43Z" transform="translate(-822.78 -220.19)"/><path class="cls-1" d="M921.21,707.83c.24.13.66.23.73.43.16.4-.32.43-.65.47s-.76,0-.85-.33S920.81,708,921.21,707.83Z" transform="translate(-822.78 -220.19)"/><path class="cls-1" d="M1149.68,443.18c.51,0,.52.31.57.59s0,.63-.42.7-.53-.29-.57-.57A.6.6,0,0,1,1149.68,443.18Z" transform="translate(-822.78 -220.19)"/><path class="cls-1" d="M840.2,601.83c.09-.27.08-.66.59-.56s.45.42.4.72-.07.66-.58.56S840.19,602.13,840.2,601.83Z" transform="translate(-822.78 -220.19)"/><path class="cls-1" d="M1142.23,419.63c.58.75.69,1.25-.08,1.64a2.5,2.5,0,0,1-.49.1C1141.7,420.84,1141.52,420.26,1142.23,419.63Z" transform="translate(-822.78 -220.19)"/><path class="cls-1" d="M1137.06,414.71a.82.82,0,0,1-.88.33c-.33,0-.79-.05-.67-.48s.5-.37.85-.33S1137.1,414.28,1137.06,414.71Z" transform="translate(-822.78 -220.19)"/><path class="cls-1" d="M1053.84,722.7c-.06.38-.43.4-.78.39s-.76,0-.76-.4.42-.41.77-.41S1053.79,722.28,1053.84,722.7Z" transform="translate(-822.78 -220.19)"/><path class="cls-1" d="M848.91,400a.6.6,0,0,1,.67-.51c.53,0,.81.25.59.67-.1.2,0,.64-.53.56S848.88,400.39,848.91,400Z" transform="translate(-822.78 -220.19)"/><path class="cls-1" d="M1125.39,396.82a3.78,3.78,0,0,1-1.13-2.34C1126.24,394.72,1125.19,396,1125.39,396.82Z" transform="translate(-822.78 -220.19)"/><path class="cls-1" d="M1047.1,727.88c.47.06.49.37.49.65s0,.64-.5.63-.48-.35-.48-.64S1046.63,727.93,1047.1,727.88Z" transform="translate(-822.78 -220.19)"/><path class="cls-1" d="M849.39,621a.6.6,0,0,1,.44.73c0,.28-.07.66-.57.56s-.44-.41-.4-.71S848.94,621,849.39,621Z" transform="translate(-822.78 -220.19)"/><path class="cls-1" d="M852.63,621a.6.6,0,0,1,.44.73c0,.28-.07.66-.57.56s-.44-.41-.4-.71S852.18,621,852.63,621Z" transform="translate(-822.78 -220.19)"/><path class="cls-1" d="M1134.1,393.47c-.13.41-.13.82-.62.68-.21-.06-.37-.45-.4-.69s.07-.68.56-.54C1133.87,393,1134,393.33,1134.1,393.47Z" transform="translate(-822.78 -220.19)"/><path class="cls-1" d="M852,391.72c0,.28,0,.64-.5.63s-.49-.35-.49-.63,0-.64.49-.64S852,391.43,852,391.72Z" transform="translate(-822.78 -220.19)"/><path class="cls-1" d="M956,737.48c-.44,0-.85,0-.93-.35s.35-.44.68-.47.76,0,.85.34S956.18,737.38,956,737.48Z" transform="translate(-822.78 -220.19)"/><path class="cls-1" d="M1125.36,631.93c.11-.84.07-1.73,1.11-2.26A2.91,2.91,0,0,1,1126,632Z" transform="translate(-822.78 -220.19)"/><path class="cls-1" d="M1028.2,741.94c-.13.41-.13.82-.62.68-.21-.06-.37-.45-.4-.69s.07-.68.56-.54C1028,741.45,1028.09,741.8,1028.2,741.94Z" transform="translate(-822.78 -220.19)"/><path class="cls-1" d="M850.46,385.5c.59.75.7,1.25-.08,1.64a1.85,1.85,0,0,1-.49.1C849.93,386.71,849.75,386.13,850.46,385.5Z" transform="translate(-822.78 -220.19)"/><path class="cls-1" d="M1124.94,383.7c.58.75.7,1.25-.08,1.64a2.5,2.5,0,0,1-.49.11C1124.41,384.92,1124.23,384.34,1124.94,383.7Z" transform="translate(-822.78 -220.19)"/><path class="cls-1" d="M858.61,374.85c1.1.43,1.13,1.08,1.71,2C859,376.33,858.57,375.88,858.61,374.85Z" transform="translate(-822.78 -220.19)"/><path class="cls-1" d="M866.74,651.05c-.51,0-.59-.3-.57-.57s.19-.63.4-.69c.48-.14.52.26.56.54A.59.59,0,0,1,866.74,651.05Z" transform="translate(-822.78 -220.19)"/><path class="cls-1" d="M1125.45,650.44c-.11.15-.23.49-.47.56-.49.13-.52-.27-.57-.55s0-.62.4-.7S1125.31,650,1125.45,650.44Z" transform="translate(-822.78 -220.19)"/><path class="cls-1" d="M982.81,763.55l.5,0c.19.89.37,1.78.56,2.68C981.94,765.78,983.17,764.45,982.81,763.55Z" transform="translate(-822.78 -220.19)"/><path class="cls-1" d="M869.16,357.25c-.78.42-1.38.51-1.85-.14a1.11,1.11,0,0,1-.13-.4C867.8,356.8,868.55,356.48,869.16,357.25Z" transform="translate(-822.78 -220.19)"/><path class="cls-1" d="M849.9,403.86a3.3,3.3,0,0,1-1,2.39C848.8,405.33,848.57,404.36,849.9,403.86Z" transform="translate(-822.78 -220.19)"/><path class="cls-1" d="M1085.41,693.36c-.6-.72.09-1.17.34-1.85C1086.05,692.26,1086.26,692.84,1085.41,693.36Z" transform="translate(-822.78 -220.19)"/><path class="cls-1" d="M1012,753.67c.1-.7-.36-1.64,1.08-1.79A1.51,1.51,0,0,1,1012,753.67Z" transform="translate(-822.78 -220.19)"/><path class="cls-1" d="M852.15,618.9c-.19.26-.3.62-.54.69-.49.15-.55-.24-.55-.53a.58.58,0,0,1,.58-.62C851.78,618.43,851.94,618.7,852.15,618.9Z" transform="translate(-822.78 -220.19)"/><path class="cls-1" d="M833.66,578.57c0,.31-.07.67-.55.63a.45.45,0,0,1-.4-.67c.08-.19.26-.45.45-.49C833.77,577.9,833.56,578.35,833.66,578.57Z" transform="translate(-822.78 -220.19)"/><path class="cls-1" d="M1105.5,351.75c-.45.4-.35,1.21-1.34,1.1-.09,0-.22-.23-.21-.34C1104,351.61,1104.83,351.84,1105.5,351.75Z" transform="translate(-822.78 -220.19)"/><path class="cls-1" d="M841.68,593.31a.63.63,0,0,1-.67.43c-.38,0-.74-.19-.55-.51s.52-.37.83-.44S841.73,592.94,841.68,593.31Z" transform="translate(-822.78 -220.19)"/><path class="cls-1" d="M1010.9,755.47a2.37,2.37,0,0,1,1.08-1.8C1011.88,754.38,1012.35,755.32,1010.9,755.47Z" transform="translate(-822.78 -220.19)"/><path class="cls-25" d="M921.77,292.07a2.17,2.17,0,0,1-1.7,1.74A2.48,2.48,0,0,1,921.77,292.07Z" transform="translate(-822.78 -220.19)"/><path class="cls-1" d="M854.06,622.48c-.46-.72-.45-1.09-.15-1.4s.59-.15.6.07A4.93,4.93,0,0,1,854.06,622.48Z" transform="translate(-822.78 -220.19)"/><path class="cls-1" d="M1025.93,271.57l-.84-.22c-.46-.18-.43-.47-.23-.78l.13-.14c.38-.05.78-.34,1.14,0S1026,271.19,1025.93,271.57Z" transform="translate(-822.78 -220.19)"/><path class="cls-1" d="M1082.16,327.66a2.07,2.07,0,0,1-1.09-1.45C1082.35,326.22,1082.22,327,1082.16,327.66Z" transform="translate(-822.78 -220.19)"/><path class="cls-1" d="M1068.35,306.5c.15.39.33.62.26.71a1.42,1.42,0,0,1-.73.5c-.56.11-.19-.3-.16-.37A5.77,5.77,0,0,1,1068.35,306.5Z" transform="translate(-822.78 -220.19)"/><path class="cls-1" d="M1039,278.48a2.27,2.27,0,0,1-.46.19c-.16-.16-.38-.34-.38-.52a.33.33,0,0,1,.53-.23C1038.84,278,1038.88,278.29,1039,278.48Z" transform="translate(-822.78 -220.19)"/><path class="cls-1" d="M1126.89,632.59c-.12.11-.26.35-.44.37-.54.07-.44-.32-.44-.56s-.31-.47.23-.39C1126.58,632.06,1126.89,632.17,1126.89,632.59Z" transform="translate(-822.78 -220.19)"/><path class="cls-1" d="M866.57,644c.44-.14.55.08.52.28a.68.68,0,0,1-.33.49.31.31,0,0,1-.47-.3C866.31,644.32,866.49,644.16,866.57,644Z" transform="translate(-822.78 -220.19)"/><path class="cls-1" d="M879,664.88c.16.14.37.3.35.32a1.27,1.27,0,0,1-.51.39c-.27.06-.58-.06-.42-.35S878.8,665,879,664.88Z" transform="translate(-822.78 -220.19)"/><path class="cls-1" d="M1060,719.83c-.43-.51-.6-.66-.57-.69a2,2,0,0,1,.71-.59c.34-.13.39.14.31.36S1060.14,719.47,1060,719.83Z" transform="translate(-822.78 -220.19)"/><path class="cls-1" d="M987.1,784.2c-.87-.63-.38-1.48-.52-2.23h0c1.68.5,1.21,1.36.54,2.26Z" transform="translate(-822.78 -220.19)"/><path class="cls-1" d="M1138.15,609.71c-.35-.68-.4-1.14,0-1.6C1138.54,608.57,1138.47,609,1138.15,609.71Z" transform="translate(-822.78 -220.19)"/><path class="cls-13" d="M978.47,750.53c0-.15,0-.3,0-.44,1.59.11,1.45.91,1,1.81l-1-.95A2,2,0,0,0,978.47,750.53Z" transform="translate(-822.78 -220.19)"/><path class="cls-1" d="M841,420.32c-.07-.34-.19-.57-.11-.72s.38-.15.58-.23c.05.13.19.3.14.38A3.52,3.52,0,0,1,841,420.32Z" transform="translate(-822.78 -220.19)"/><path class="cls-1" d="M1146.17,584.87a.93.93,0,0,1,.09,1.36C1145.75,585.79,1146.09,585.32,1146.17,584.87Z" transform="translate(-822.78 -220.19)"/><path class="cls-1" d="M1007.58,247c-.25.41-.49.28-.67.14s-.43-.32-.46-.5.28-.32.48-.2A3.65,3.65,0,0,1,1007.58,247Z" transform="translate(-822.78 -220.19)"/><path class="cls-1" d="M927.52,713.88c-.11.1-.24.31-.43.37s-.46-.13-.39-.34a.74.74,0,0,1,.38-.45C927.35,713.39,927.54,713.55,927.52,713.88Z" transform="translate(-822.78 -220.19)"/><path class="cls-1" d="M998.47,819.24c.79,0,1.57,0,1.63.89A1.68,1.68,0,0,1,998.47,819.24Z" transform="translate(-822.78 -220.19)"/><path class="cls-26" d="M988.24,223.83l-.48,0a11.37,11.37,0,0,1,0-1.75.85.85,0,0,1,1-.84c.64.08.57.65.69,1.06l-.17.25c-.52.31-.56.88-1,1.23Z" transform="translate(-822.78 -220.19)"/><path class="cls-26" d="M990.32,222.92l0,1.33a2.36,2.36,0,0,1-.38-.1c-.77-.39-1.3-.86-.76-1.67l.2-.14Z" transform="translate(-822.78 -220.19)"/><path class="cls-27" d="M1142.73,590.22a1,1,0,0,1-.36,0c-1.71.81-.59,2.69-2,3.63-.81-.25-1.23-1-2.14-1.24.27.91,1.59.65,2,1.33.51,2.32-1.57,4.26-1.38,6.54.13.4-.09.69-.42,1-1.75-1.57-2.32-3.52-2.4-6.22-3.18,4.09-7.52,2.17-11.26,2.54-1.72.17-3.18,0-3.18,2.07s1.47,2,3.21,2c2.07,0,4.14.07,6.21,0s3.44,0,3.14,2.16c0,.32.32.67.8,1.6.14-1.48.22-2.36.34-3.64,1.16,2.77,0,4.92-.79,7.16a6.56,6.56,0,0,0-7.31-.86c-.27.14-.58.42-.61.65-.38,3.12-.94,6.29,2.21,8.79.52.42,1.22.79,1.15,1.45s0,1.44-1.16,1.52-1.22-.5-1.18-1.17c.07-1-.56-1.66-1.69-2.16-1.41,1.7,0,3.21.89,5.41-2.79-2-5.39-1.57-7.9-1.57H1086c-4.39,0-5.5.83-5.32,4.48.11,2.15-.65,2.78-3.27,2.76-14.22-.11-28.45-.05-42.67-.05-5.2,0-6.06.6-5.93,4.87,0,1.92-.74,2.39-2.93,2.35q-8.91-.17-17.82,0c-2,0-2.75-.52-2.57-2.18.15-1.41-.15-2.86.06-4.26.7-4.58-1.58-9-1.13-13.54,0-.41,0-1-.75-.92a1.46,1.46,0,0,0-1.32,1.28c-.09,1.41,0,2.84-.1,4.26,0,.65.49,1.73-1,1.7a1.18,1.18,0,0,1-1.14-1.7c1.45-4-1.85-7.65-.61-11.57a1.84,1.84,0,0,0-.48,2.07c.61,3.15-1.79,6-1.13,9.19a13.43,13.43,0,0,1,.13,1.8c.92-.8-.16-1.92,1.19-2.65.24,1.37.53,2.29-.58,3.65s-1.33,3.67-1.78,5.57c-.4,1.65.59,3.41-.57,5-.2-11.5,1.25-23,1.28-34.47,0-5.88-.2-11.81.42-17.68.85-8.07.18-16.13.46-24.19a14.51,14.51,0,0,0,0-6.29V539.93c-.75-.78-.5-1.71-.53-2.58-.12-3.94.23-7.89-.2-11.83,0-2.38-.34-4.78.19-7.15,1.66.28,1,1.39,1.07,2.18.81,9.54.51,19.1.56,28.65a1.19,1.19,0,0,0,.54,1c0-2.75,0-5.5,0-8.24,0-1.28.59-1.57,2-2.23,2.63-1.26,4.92,0,7.32-.23a42.26,42.26,0,0,1,7.79.17c1.43.14,2.86.11,4.28.23,2.49.21,4.29-.14,4.1-2.74-.08-1.07,1-1.34,2-1.3,7,.23,14-.52,21,.41,2,.27,2.89-.55,2.83-2.12s.85-2,2.5-1.9c6.9.26,13.83-.51,20.71.43,1.65.23,2.76-.38,2.68-1.76-.13-2.07,1.2-2.3,3.19-2.28,5.49.07,11,0,16.46,0a14.65,14.65,0,0,1,1.88.06c3.66.5,3.7.52,4.47-2.4.28-1.05,1.07-1.29,2.15-1.25,7,.23,14-.52,21,.42,1.81.24,2.83-.45,2.76-1.95-.09-1.77,1-2.11,2.84-2.09q8.23.09,16.46,0c1.72,0,3.42-.28,5.13-.43.34,8.08-.52,16.12-1.41,24.15-.53,4.83-1.29,9.64-1.94,14.45q-1.59,7.14-3.2,14.27a16.71,16.71,0,0,1-.68,1.91c-1.81,1.09-.73,2.88-1.48,4.29a12.94,12.94,0,0,0-1,5.17C1143.61,587,1142.71,588.51,1142.73,590.22Z" transform="translate(-822.78 -220.19)"/><path class="cls-4" d="M997.93,518.37c0,2.39,0,4.79,0,7.18a80.2,80.2,0,0,1,0,14.37h0c-.88-.66-.52-1.53-.52-2.32,0-6.41,0-12.82,0-19.24Z" transform="translate(-822.78 -220.19)"/><path class="cls-28" d="M979.55,751.9a1.51,1.51,0,0,0-1-1.81l-.06-.86a.66.66,0,0,1,0-1c2.8-3.08,3.21-6.86,4.19-10.42,1.66-6.06,2.93-12.19,4.37-18.29a39.09,39.09,0,0,0,1.44-7.83c.15-2.23,1.33-4.27,1.49-6.48a1.41,1.41,0,0,1,1-1.28c1-.29.87.8,1.79,1,.32-1.4,0-3,1.1-4.19.48-.55.64-1.56,1.94-1a65.74,65.74,0,0,1,1.64,9c-.65-.27-.5-.89-.94-1.84-.4,2.22.45,3.8.69,5.41.11.78.36,1.55-.3,2.12-3.57,3.09-3.24,7.36-5,11-.83,1.7-.84,3.74-2.69,5.16-.93.71-.21,2.23-1.63,3-.94-.74-.79-1.82-1.26-3.26-.45,2.38.05,4.47-2.18,6-.57.38,1.19.65,1.74,1.15.28.26,1.39.24.87.74-1.37,1.29.36,3.52-2,4.36-1.16.41-.43-1.22-1.78-1.12.28,3.89-2.59,7.15-3.35,10.89A3,3,0,0,1,979.55,751.9Z" transform="translate(-822.78 -220.19)"/><path class="cls-29" d="M995.78,699.79c-1.82,1.06-2.18,2.61-2.2,4.34,0,.73.62,2-.6,2.13-1.6.25-1.4-1.18-1.76-2.11a7,7,0,0,0-.87,2.14c-1.29,4.13-1.7,8.38-2.73,12.54-.06.25-.37.47-.56.7,1-6.81,2.08-13.6,2.94-20.42.59-4.67,1.65-9.31,1.5-14a33.69,33.69,0,0,0,.24-8.57c.17-.9-.18-1.93.89-2.62.15-.18.26-.48.45-.52.81-.19.44.39.48.62.38,2-.25,4.1.52,6.1.23,5.93.81,11.83,1.61,17.72C995.78,698.45,995.75,699.12,995.78,699.79Z" transform="translate(-822.78 -220.19)"/><path class="cls-4" d="M992.52,676.43a27.8,27.8,0,0,1-1,8.64,14.58,14.58,0,0,0-1.55-7.91c-1.63.34-1.77,1.58-2,3.2-2.13-3,.67-5.18.23-7.52a1.83,1.83,0,0,1,2.16,0C990.85,674.14,992.52,674.94,992.52,676.43Z" transform="translate(-822.78 -220.19)"/><path class="cls-30" d="M959,734.94l-1-.14-1.7-1.75A3,3,0,0,1,959,734.94Z" transform="translate(-822.78 -220.19)"/><path class="cls-13" d="M978.5,748.24c0,.33,0,.66,0,1-.75-.58-1.06-1.51-2.13-1.84,0-.18,0-.36.07-.53A3.53,3.53,0,0,1,978.5,748.24Z" transform="translate(-822.78 -220.19)"/><path class="cls-3" d="M990.37,672.84h-2.16c0-1.93,0-3.86,0-5.79,0-.9.35-1.39,1.54-1.39a1.63,1.63,0,0,1,1.78,1.19,3.35,3.35,0,0,1-.86,4.5C990.32,671.66,990.45,672.34,990.37,672.84Z" transform="translate(-822.78 -220.19)"/><path class="cls-2" d="M997.94,539.92V525.55c.88.66.51,1.54.52,2.32,0,4,0,8,0,12.06Z" transform="translate(-822.78 -220.19)"/><path class="cls-3" d="M992.52,676.43c-.76.16,0-2.21-1.61-.66-1.12-.86-.27-2-.54-2.93,1,0,2.07-.16,2.26,1C992.59,674.73,992.56,675.58,992.52,676.43Z" transform="translate(-822.78 -220.19)"/><path class="cls-2" d="M998.47,550.7a7.82,7.82,0,0,1,0,6.29Z" transform="translate(-822.78 -220.19)"/><path class="cls-3" d="M926.62,708.76a15.53,15.53,0,0,1-4-3.54C924.39,706.06,926,707.07,926.62,708.76Z" transform="translate(-822.78 -220.19)"/><path class="cls-3" d="M935.16,716.07a8.11,8.11,0,0,1-3.43-2.75A5.88,5.88,0,0,1,935.16,716.07Z" transform="translate(-822.78 -220.19)"/><path class="cls-3" d="M934.43,711.19c1.18,1.27.68,1.91.18,2.53a.91.91,0,0,1-.63-.07C933.64,712.89,934.61,712.41,934.43,711.19Z" transform="translate(-822.78 -220.19)"/><path class="cls-3" d="M928.71,710.71a5.13,5.13,0,0,1-2.09-2C928,709,930,708.62,928.71,710.71Z" transform="translate(-822.78 -220.19)"/><path class="cls-3" d="M950.39,724c-.81-.06-1.72.17-2.49-.69,1.17-.22,2.14-.6,2.49.69Z" transform="translate(-822.78 -220.19)"/><path class="cls-31" d="M900.59,683.2a2.85,2.85,0,0,1-2.05-2.3A4.2,4.2,0,0,1,900.59,683.2Z" transform="translate(-822.78 -220.19)"/><path class="cls-3" d="M947.34,724.34a1.4,1.4,0,0,1-1.47-1.05A1.38,1.38,0,0,1,947.34,724.34Z" transform="translate(-822.78 -220.19)"/><path class="cls-16" d="M988.75,798.58v-6.29a5.08,5.08,0,0,0,1.53-4.59c-.37-2.87,1.54-5.55.67-8.42-.23-.75.52-1.51,1.46-1.7,2.59-.52,2.93-2.23,3.08-4s.24-3.61,2.49-4.66a.94.94,0,0,0,.58-.72c.06-4,4.15-6.84,4.6-10.54s2.2-6.93,3.47-10.35a3.47,3.47,0,0,0-.29-2.62c-.47-1.17-.29-2.19,1.55-2.17,1.44,0,1.34-.67,1.26-1.46s-.73-1.6.16-2.09,1.58.4,2.35.69c.49.19,1,.26,1.51.48a7.7,7.7,0,0,1,2.67,1.79c-.84.46-1.73-.88-2.26-.17-.71,1-.47,2,.3,3.07,1.64,2.24,1.53,2.36-1.51,3.46-.45.17-.91.33-.85.73.42,3-2.11,5.65-1.7,8.67a4,4,0,0,0-2.21,3.78c0,4.24-2.07,8.09-3.78,12a11.29,11.29,0,0,0-1,2.51,26.55,26.55,0,0,1-4.72,10.91c-2.41,3.39-2.07,6.54-2.32,9.9-.07,1-.28,1.45-1.57,1.93-2.52.93-1.92,3.36-2.76,5.12-.27.57.56,1.67-1.26,1.34-.46-.08-.3.75-.38,1.17-.19,1,.47,2.1-.54,3,0-1.2,0-2.39,0-3.59C988.53,803.4,989.54,800.94,988.75,798.58Z" transform="translate(-822.78 -220.19)"/><path class="cls-32" d="M1013.17,740.16a2.62,2.62,0,0,1-3.59-1.61c-.44,1.61.56,2.33.39,3.38-.21,1.29.5,2.62-1.87,1.08a1,1,0,0,0-1.22.21c-.43.48-.15.92.14,1.43,1.07,1.82,0,5.94-1.95,7.28a1.48,1.48,0,0,0-.62,1.8,8.83,8.83,0,0,1-2,7.83c-2.16,2.33-2.43,4.67-3.06,7.16,0,.14-.12.36-.24.39-4.08,1.26-2.44,4.48-3.3,6.81-.42,1.14-.89,2-2.39,2-2,.05-2.31,1.08-1.85,2.28a4.79,4.79,0,0,1-.38,4.1c-.92,1.89.3,4-.79,6-.44.78-.28,1.8-1.67,2v-.9c.89-.83.51-2,1-2.91.76-1.41-2,.1-1.65-1.37a3.48,3.48,0,0,0-1-2.89c-.16-.76.33-1.62-.54-2.26,0-1.05,0-2.09,0-3.14.69.26.33,1,.79,1.32,1.09-2.44,1.31-5.12,3.61-7.2,1.13-1,.33-2.6.45-3.93a4.41,4.41,0,0,1,1.44-3.22,11,11,0,0,0,3-5.11,64,64,0,0,1,2.93-8.73c1-2.65,2.64-5.18,3.3-7.89.56-2.24,2.56-4,2.63-6.37a10.13,10.13,0,0,0-.4-4.12c2.2,1.08,4,1.64,4.56,3.5.09.31.62.06.94,0Z" transform="translate(-822.78 -220.19)"/><path class="cls-28" d="M999,719.1v-2.8c-1,.58-.19,1.39-.91,2.06-.75-2.4.4-4.69-.12-6.94,1.16,2.32,1.44,4.81,2.12,7.22C999.85,719,999.62,719.36,999,719.1Z" transform="translate(-822.78 -220.19)"/><path class="cls-16" d="M1019.55,742.91a2.62,2.62,0,0,1-2.15,1.35c-.83-1-1.78.1-2.67-.08.35-.78-.36-1.89,1.12-2.24C1017.14,742.11,1018,743.3,1019.55,742.91Z" transform="translate(-822.78 -220.19)"/><path class="cls-33" d="M1074.63,698.89a18.65,18.65,0,0,1-5.36,5.41C1070.7,702.26,1072,700.12,1074.63,698.89Z" transform="translate(-822.78 -220.19)"/><path class="cls-13" d="M999,719.1l1.09-.46a7.9,7.9,0,0,1,1.14,3.54c-.77.27-.34,1.09-1.4,1.72C1001.06,721.87,999.53,720.58,999,719.1Z" transform="translate(-822.78 -220.19)"/><path class="cls-13" d="M1002.2,725.39c0-.17.08-.33.11-.5a10.12,10.12,0,0,1,2.16,4.5A4.21,4.21,0,0,1,1002.2,725.39Z" transform="translate(-822.78 -220.19)"/><path class="cls-33" d="M1079.13,694.45a9.59,9.59,0,0,1-3.4,3.48C1076.63,696.62,1076.78,694.79,1079.13,694.45Z" transform="translate(-822.78 -220.19)"/><path class="cls-13" d="M1002.33,724.91a3,3,0,0,1-1.11-2.71A3.5,3.5,0,0,1,1002.33,724.91Z" transform="translate(-822.78 -220.19)"/><path class="cls-28" d="M998,711.45c-1.1-.76-.43-1.79-.59-2.7A4,4,0,0,1,998,711.45Z" transform="translate(-822.78 -220.19)"/><path class="cls-34" d="M1030.29,736.08c0,.18,0,.35.07.53-.77.24-1.23,1-2.21.87A3.84,3.84,0,0,1,1030.29,736.08Z" transform="translate(-822.78 -220.19)"/><path class="cls-35" d="M1024.86,270.57c.07.26.15.52.23.78-.48,0-1.76-.25-.76.51,2.27,1.74,1.69,5.24,5.58,6,.9.17.49,1.94,2.06,2.06a.58.58,0,0,1,.13.85c.36-.33.15-.59-.13-.85.13-.75-.83-1.12-1-2.35a17.44,17.44,0,0,1,2.9,2.8c.33.52.34,1.35,1.17,1,1.12-.45-.33-.91-.32-1.43a1.78,1.78,0,0,0-.08-.44,8,8,0,0,1,2.84,2.61c-.33.66.89,2.34-.9,1.85-1.31-.36-1.43,1.09-2.45.48-.36-.22-1.05-.06-1.49-.37-.27-.2.08,0-.18-.16s-.42-.27-.62-.42c.12.24.47.24.64.45,2.33,1.21,4.4.12,6.53-.49,1.62,1.24,3.45,2.33,4.45,4-.76.42-1.08-.08-1.13-.14,2,1.05,3.52,3.21,5.9,4.58a1.29,1.29,0,0,1,1.12,1c-.65.06-1.51.21-1.49.75,0,2.44-2,2-3.73,2-.89,0-1.8,0-2.69,0-1.67-.09-2.64.43-2.45,1.91s-.77,1.71-2.28,1.71c-7.1-.05-14.2,0-21.29-.05-2,0-3.17.37-2.93,2.23.14,1.1-.6,1.54-1.79,1.37-4.46-.61-8.94-.4-13.42-.42-1.43,0-1.54-.74-1.53-1.64,0-2.69.05-5.38,0-8.06-.15-7.56-.29-15.13-.57-22.68-.06-1.82.71-3.53.58-5.32,0-.47.26-1.1-.8-1.1s-.81.62-.81,1.09c0,3.14,0,6.28,0,9.41a1.36,1.36,0,0,1-.53-1.43c.36-6-.43-11.91-.66-17.87-.32-8.15-1.35-16.29-2.09-24.43-.12-1.3-1.83-2.6,0-3.89.89,1.52,1.79,3,2.68,4.54a4.33,4.33,0,0,0,2.06,3.55c3.67,6.15,7.18,12.37,11.94,18a44.17,44.17,0,0,0,5.48,7.14,42.91,42.91,0,0,0,8.6,8.11A9.11,9.11,0,0,0,1024.86,270.57Z" transform="translate(-822.78 -220.19)"/><path class="cls-2" d="M1107.2,363.84a58.09,58.09,0,0,1,5.84,9.89c-1.13.88-1.32-.39-1.41-.61-1-2.48-3.35-2.51-5.83-2.5-6.84,0-13.68,0-20.52,0-3.13,0-3.59.39-3.59,3,0,4.58.45,4.18-5.15,4.18h-42.66c-3.74,0-4.06.27-4.07,3.29a10.14,10.14,0,0,0,0,1.35c.3,1.95-.68,2.62-3.06,2.58-6.48-.1-13-.11-19.44,0-2.55,0-3-.9-2.94-2.72s-.42-3.79,3-3.62c1.17.06,2.34,0,3.51,0,1.5,0,2.72-.12,2.71-1.74,0-1.2,1-1.42,2.22-1.42,2.7,0,5.4,0,8.1,0,1.78,0,3-.67,3.1-2.2.06-1.73,1.27-1.85,2.87-1.85,10.81,0,21.61,0,32.41,0,1.77,0,3.2,0,3.24-2,0-1.23,1.41-1.12,2.49-1.13,3.87,0,7.74,0,11.61,0,2.11,0,3.53-.58,3.62-2.5.06-1.15.8-1.54,2.09-1.55,5.29-.08,10.6.28,15.87-.44,1.46-.2,2.12.34,2.09,1.63,0,.59-.67,1.79.83,1.69s1.2-1.17.82-2.06a2.76,2.76,0,0,1,0-1c1.36.7.8,2.53,2.8,2.66C1108,365.78,1105.46,365,1107.2,363.84Z" transform="translate(-822.78 -220.19)"/><path class="cls-2" d="M999.36,389.09a35.89,35.89,0,0,1-.88-9.69c0-.45,0-.94.74-1,.52-.07.74.3,1,.58,1.59,1.49,1.1,3.34.79,4.92S1001.31,387.43,999.36,389.09Z" transform="translate(-822.78 -220.19)"/><path class="cls-2" d="M1114.75,376.9a12.82,12.82,0,0,1,2.65,4.86c-.14.25,0,.87-.72.42-1.29-.75-1.48-2-2-3.08s-.82-.89-1.13.06h0c-1.55-1.12,1-2.51-.32-3.66Z" transform="translate(-822.78 -220.19)"/><path class="cls-2" d="M1112,383.07c-.55-1.51-2.38-2.09-1-3.77C1111.22,380.56,1112.9,381.12,1112,383.07Z" transform="translate(-822.78 -220.19)"/><path class="cls-2" d="M1108.89,373c1.82.11,2.15.85,3,1.46C1110.21,374.81,1109.86,374,1108.89,373Z" transform="translate(-822.78 -220.19)"/><path class="cls-2" d="M1113.56,379.16a2.69,2.69,0,0,1,.77,2.37c-1.12-.59-.62-1.56-.77-2.37Z" transform="translate(-822.78 -220.19)"/><path class="cls-2" d="M1091.9,344.41c-.09.4-.23.69-.64.72-.09,0-.31-.3-.31-.47a.61.61,0,0,1,.6-.63C1091.67,344,1091.82,344.31,1091.9,344.41Z" transform="translate(-822.78 -220.19)"/><path class="cls-4" d="M903.84,312.18c2.5,1.37,2.63,1.31,4.36-1.91.58,1.4-2,5.6-4.2,6.79a1,1,0,0,0-.72-1.2c-.8-.08-.46-.67-.33-.79.92-.85.8-1.89.91-2.89Z" transform="translate(-822.78 -220.19)"/><path class="cls-9" d="M961.19,262.4a12.39,12.39,0,0,0,8.12-2.47c.86,2.28.06,3.47-2.55,3.3-1.85-.12-4.09,1.08-5.57-.83Z" transform="translate(-822.78 -220.19)"/><path class="cls-18" d="M989.22,222.48c.25.56.51,1.11.76,1.67a3,3,0,0,1-1.73-.33C988.59,223.38,987.33,222.14,989.22,222.48Z" transform="translate(-822.78 -220.19)"/><path class="cls-9" d="M992.06,328c0-1,0-2,0-3C992.38,326,992.92,327,992.06,328Z" transform="translate(-822.78 -220.19)"/><path class="cls-36" d="M995.77,818.34a9.45,9.45,0,0,0-4.32-.9,1.68,1.68,0,0,1-1.63-.89c2.67.68,3.42,0,4-2.41a29.43,29.43,0,0,1,3.49-8.21c.81-1.31.84-2.7,1.27-4,1.48-4.43,4.67-8.45,4.74-13.22,0-.14,0-.33.1-.43,1.89-1.82,2-3.93,1.52-6.17a1.06,1.06,0,0,1,.52-1.31c1.28.93-.22,2.51,1.08,3.38v10.33a10.07,10.07,0,0,1,0,4.94v1.79c.08,1.87-.86,3.35-1.75,5.05-1.33,2.54-2.83,5.27-3.11,8.18-.12,1.29-.65,2.16-2.45,2S997.47,818.46,995.77,818.34Z" transform="translate(-822.78 -220.19)"/><path class="cls-28" d="M996.86,719.6c-.11.14-.24.49-.47.55-.49.13-.52-.27-.57-.54s0-.63.4-.71S996.72,719.19,996.86,719.6Z" transform="translate(-822.78 -220.19)"/><path class="cls-28" d="M996,718a1.46,1.46,0,0,1,.67-1.74C997,717,996.94,717.51,996,718Z" transform="translate(-822.78 -220.19)"/><path class="cls-14" d="M980.64,755.47c-.87-.62-.4-1.49-.58-2.24C981,753.84,980.5,754.72,980.64,755.47Z" transform="translate(-822.78 -220.19)"/><path class="cls-6" d="M1143.88,585.3c-1.31-.86,0-1.78,0-2.66,0-2,1.3-3.82,1.06-5.87-.09-.8.69-.92,1.46-.93-.13.45-.26.9-.4,1.35-.7.68.08,1.6-.53,2.3C1144.85,581.41,1145,583.48,1143.88,585.3Z" transform="translate(-822.78 -220.19)"/><path class="cls-27" d="M1145.46,579.49c.1-.78-.4-1.65.53-2.3,0,.74,0,1.47-.07,2.21A3.4,3.4,0,0,1,1145.46,579.49Z" transform="translate(-822.78 -220.19)"/><path class="cls-7" d="M1032.51,284c1.19-.09,3.18.77,2.27-1.54,1.1.2,1.3,1,1.86,1.34,1.43-.23-1.12-1.65.86-1.64.75.26,1.41.59,1.53,1.34-2,1.61-5,1.83-6.52.5Z" transform="translate(-822.78 -220.19)"/><path class="cls-7" d="M1048.25,291.94a4.48,4.48,0,0,1-.38.26c-2.46-1.92-4.89-3.86-7.16-5.94,1.3,0,1.63,1.14,2.77,1.24l.82.14C1045.12,289.39,1047.46,290.17,1048.25,291.94Z" transform="translate(-822.78 -220.19)"/><path class="cls-6" d="M1138.87,600.53c-1-2.41,1.18-4.43,1.16-6.72.84-.54.4-1.34.59-2s.47-1.57,1.75-1.53c-.25,1.17-.51,2.34-.77,3.5Z" transform="translate(-822.78 -220.19)"/><path class="cls-15" d="M1006.58,799.48v-4.94A5,5,0,0,1,1006.58,799.48Z" transform="translate(-822.78 -220.19)"/><path class="cls-12" d="M988.75,798.58c1.14,2.35.25,4.8.53,7.19C988.16,803.42,989,801,988.75,798.58Z" transform="translate(-822.78 -220.19)"/><path class="cls-6" d="M1027.11,612.22h10.25c1.29,0,2.65-.09,2.7,1.47,0,1.38-.76,2.27-2.42,2.53a8.67,8.67,0,0,1-1.35,0c-6.65,0-13.3,0-19.95,0-1.9,0-2.81-.42-2.78-2.15s1.1-2,2.77-1.92C1019.92,612.25,1023.52,612.22,1027.11,612.22Z" transform="translate(-822.78 -220.19)"/><path class="cls-6" d="M1076.54,605h4c1.28,0,2.65-.1,2.7,1.45a2.16,2.16,0,0,1-2.14,2.46c-3.3.17-6.63.14-10,0-1.48,0-1.37-1.14-1.4-2s.17-1.86,1.64-1.9c1.7,0,3.4,0,5.11,0Z" transform="translate(-822.78 -220.19)"/><path class="cls-6" d="M1135.18,590.26c0-.78,0-1.51,0-2.24s.06-1.43,1.21-1.32,1,.93.91,1.56C1137.2,589.33,1136.31,589.88,1135.18,590.26Z" transform="translate(-822.78 -220.19)"/><path class="cls-6" d="M1137.75,590.86c.58.73.83,1,1,1.32.38.56,1.71.69,1.18,1.6-.09.17-1,0-1.52,0-1.34-.09-1.09-.94-1.09-1.64A6.46,6.46,0,0,1,1137.75,590.86Z" transform="translate(-822.78 -220.19)"/><path class="cls-6" d="M1135,590v3.48l-.72,0C1134.08,592.34,1133.63,591.21,1135,590Z" transform="translate(-822.78 -220.19)"/><path class="cls-6" d="M1143.64,572.21v3.57C1143.34,574.76,1142.12,573.77,1143.64,572.21Z" transform="translate(-822.78 -220.19)"/><path class="cls-6" d="M1138.46,587l1.91.86c-.12.19-.16.39-.27.43C1139,588.61,1138.4,588.28,1138.46,587Z" transform="translate(-822.78 -220.19)"/><path class="cls-6" d="M999.11,590.15v-3h.26v2.94Z" transform="translate(-822.78 -220.19)"/><path class="cls-6" d="M999.24,572.25a6.14,6.14,0,0,1,.09,3.6A6.22,6.22,0,0,1,999.24,572.25Z" transform="translate(-822.78 -220.19)"/><path class="cls-2" d="M1151.57,522.35a2.84,2.84,0,0,1,0,2.67Z" transform="translate(-822.78 -220.19)"/><path class="cls-6" d="M999.26,603.76a1.27,1.27,0,0,1,0-1.52A1.09,1.09,0,0,1,999.26,603.76Z" transform="translate(-822.78 -220.19)"/><path class="cls-28" d="M990.47,702.86v-2.52h.26v2.5Z" transform="translate(-822.78 -220.19)"/><path class="cls-7" d="M1038.81,286.3c3.38,1.26,1.21,2.52.9,3.91C1038.17,289,1040,287.7,1038.81,286.3Z" transform="translate(-822.78 -220.19)"/><path class="cls-7" d="M1041.31,292c1.77-1.26,2.88-2.58,4-.22Z" transform="translate(-822.78 -220.19)"/><path class="cls-7" d="M1032.51,284h-.79c-.67,0-1.27-.12-1.29-.81,0-.21,0-.53.2-.6.79-.34,1,.39,1.47.65.24.13.28.5.41.77Z" transform="translate(-822.78 -220.19)"/><path class="cls-7" d="M1032,279.92c.41.08,1,.11.83.58-.36.87-1.19.87-2.2.53.22-.61,1.68-.17,1.37-1.11Z" transform="translate(-822.78 -220.19)"/></svg>